<svg width="697" height="1002" viewBox="0 0 697 1002" fill="none" xmlns="http://www.w3.org/2000/svg">
<path opacity="0.5" d="M318.343 -72.3058C198.405 28.2166 179.819 218.298 98.5892 358.527C70.3124 407.322 33.7749 450.992 14.7119 505.123C-29.0536 629.026 31.1802 769.572 111.801 867.981C150.245 914.927 195.149 957.936 249.478 977.723C291.258 992.94 336.056 993.574 380.033 993.971L1150.5 1001.9C1236.52 1002.77 1332.1 999.624 1393.95 933.208C1436.57 887.478 1453.89 820.692 1468.58 756.944C1486.64 678.613 1503 593.546 1474.91 518.94C1442.82 433.582 1361.67 385.21 1311.26 311.555C1229.45 192.223 1231.33 11.7314 1127.14 -83.5336C1078.51 -127.996 1014.33 -145.432 951.792 -154.15C833.892 -170.609 722.215 -139.541 606.433 -143.873C507.464 -147.572 400.447 -141.126 318.343 -72.3058Z" fill="#39A9DB"/>
</svg>

