<svg width="543" height="439" viewBox="0 0 543 439" fill="none" xmlns="http://www.w3.org/2000/svg">
<path d="M240.482 419.284C344.891 419.284 429.531 412.406 429.531 403.921C429.531 395.435 344.891 388.557 240.482 388.557C136.073 388.557 51.4327 395.435 51.4327 403.921C51.4327 412.406 136.073 419.284 240.482 419.284Z" fill="#2EC4B6" fill-opacity="0.28"/>
<path d="M30.2259 304.062L82.7872 303.823L135.358 303.733L240.481 303.564L345.604 303.733L398.175 303.813L450.736 304.062L398.175 304.301L345.604 304.391L240.481 304.561L135.358 304.391L82.7872 304.301L30.2259 304.062Z" fill="#263238"/>
<path d="M448.483 296.814H32.4692V304.062H448.483V296.814Z" fill="#C7C7C7"/>
<path d="M61.6415 296.814C62.2928 299.186 62.2928 301.69 61.6415 304.062C61.2911 302.888 61.1229 301.668 61.143 300.443C61.1266 299.215 61.2946 297.992 61.6415 296.814Z" fill="#263238"/>
<path d="M94.1531 296.814C94.5 297.992 94.668 299.215 94.6516 300.443C94.6716 301.668 94.5035 302.888 94.1531 304.062C93.5018 301.69 93.5018 299.186 94.1531 296.814Z" fill="#263238"/>
<path d="M126.674 296.814C127.325 299.186 127.325 301.69 126.674 304.062C126.324 302.888 126.156 301.668 126.176 300.443C126.159 299.215 126.327 297.992 126.674 296.814Z" fill="#263238"/>
<path d="M159.187 296.814C159.534 297.992 159.702 299.215 159.685 300.443C159.705 301.668 159.537 302.888 159.187 304.062C158.536 301.69 158.536 299.186 159.187 296.814Z" fill="#263238"/>
<path d="M191.709 296.814C192.36 299.186 192.36 301.69 191.709 304.062C191.359 302.888 191.191 301.668 191.211 300.443C191.194 299.215 191.362 297.992 191.709 296.814Z" fill="#263238"/>
<path d="M224.221 296.814C224.567 297.992 224.736 299.215 224.719 300.443C224.739 301.668 224.571 302.888 224.221 304.062C223.569 301.69 223.569 299.186 224.221 296.814Z" fill="#263238"/>
<path d="M256.742 296.814C257.393 299.186 257.393 301.69 256.742 304.062C256.391 302.888 256.223 301.668 256.243 300.443C256.227 299.215 256.395 297.992 256.742 296.814Z" fill="#263238"/>
<path d="M289.254 296.814C289.601 297.992 289.769 299.215 289.753 300.443C289.773 301.668 289.605 302.888 289.254 304.062C288.603 301.69 288.603 299.186 289.254 296.814Z" fill="#263238"/>
<path d="M321.775 296.814C322.427 299.186 322.427 301.69 321.775 304.062C321.425 302.888 321.257 301.668 321.277 300.443C321.261 299.215 321.429 297.992 321.775 296.814Z" fill="#263238"/>
<path d="M354.287 296.814C354.634 297.992 354.802 299.215 354.786 300.443C354.806 301.668 354.637 302.888 354.287 304.062C353.636 301.69 353.636 299.186 354.287 296.814Z" fill="#263238"/>
<path d="M386.809 296.814C387.461 299.186 387.461 301.69 386.809 304.062C386.459 302.888 386.291 301.668 386.311 300.443C386.294 299.215 386.462 297.992 386.809 296.814Z" fill="#263238"/>
<path d="M419.321 296.814C419.668 297.992 419.836 299.215 419.819 300.443C419.839 301.668 419.671 302.888 419.321 304.062C418.67 301.69 418.67 299.186 419.321 296.814Z" fill="#263238"/>
<path d="M79.3886 296.814C79.3886 296.814 78.5512 292.896 76.8762 292.298C75.2013 291.699 74.1744 293.454 74.1744 293.454C74.1744 293.454 73.7856 289.705 71.4028 288.589C69.02 287.472 67.2453 289.765 67.2453 289.765C67.2453 289.765 65.4208 285.049 62.1607 285.049C58.9005 285.049 57.2654 292.028 57.2654 292.028C57.2654 292.028 55.3412 289.965 53.3672 291.131C51.3932 292.298 51.3732 296.884 51.3732 296.884L79.3886 296.814Z" fill="#37474F"/>
<path d="M357.39 296.814C357.39 296.814 356.552 292.896 354.877 292.298C353.202 291.699 352.186 293.454 352.186 293.454C352.186 293.454 351.787 289.705 349.414 288.589C347.041 287.472 345.256 289.765 345.256 289.765C345.256 289.765 343.432 285.049 340.182 285.049C336.932 285.049 335.277 292.028 335.277 292.028C335.277 292.028 333.362 289.965 331.388 291.131C329.414 292.298 329.394 296.884 329.394 296.884L357.39 296.814Z" fill="#455A64"/>
<path d="M153.445 296.814H123.984C123.984 296.814 124.981 292.666 126.905 292.367C127.502 292.308 128.102 292.436 128.624 292.732C129.145 293.029 129.562 293.479 129.816 294.022C129.816 294.022 129.727 288.23 133.376 287.243C137.025 286.256 140.075 291.37 140.075 291.37C140.075 291.37 142.369 288.449 145.479 288.639C148.59 288.828 149.397 293.624 149.397 293.624C149.397 293.624 152.189 291.959 153.445 296.814Z" fill="#37474F"/>
<path d="M53.2081 318.333H37.7049C37.7049 318.333 37.7049 316.03 39.2602 315.412C39.6747 315.234 40.136 315.194 40.5747 315.301C41.0134 315.407 41.4058 315.652 41.6929 316.001C41.6929 316.001 42.311 311.753 45.1524 311.753C47.9938 311.753 49.3597 315.412 49.3597 315.412C49.6007 315.063 49.9388 314.792 50.3321 314.632C50.7254 314.473 51.1568 314.432 51.573 314.515C53.1483 314.714 53.2081 318.333 53.2081 318.333Z" fill="#455A64"/>
<path d="M165.609 296.814H150.106C150.106 296.814 150.106 294.511 151.661 293.893C152.076 293.714 152.537 293.675 152.976 293.781C153.414 293.887 153.807 294.133 154.094 294.481C154.094 294.481 154.722 290.234 157.563 290.234C160.405 290.234 161.761 293.893 161.761 293.893C162.002 293.543 162.34 293.272 162.733 293.113C163.126 292.953 163.558 292.913 163.974 292.995C165.549 293.195 165.609 296.814 165.609 296.814Z" fill="#455A64"/>
<path d="M420.639 296.814H405.135C405.135 296.814 405.135 294.511 406.691 293.893C407.105 293.714 407.566 293.675 408.005 293.781C408.444 293.887 408.836 294.133 409.123 294.481C409.123 294.481 409.741 290.234 412.583 290.234C415.424 290.234 416.79 293.893 416.79 293.893C417.03 293.542 417.368 293.271 417.762 293.111C418.155 292.951 418.587 292.911 419.004 292.995C420.579 293.195 420.639 296.814 420.639 296.814Z" fill="#455A64"/>
<path d="M443.26 296.814H417.697C417.697 296.814 417.757 293.005 420.269 291.998C420.953 291.712 421.711 291.654 422.429 291.833C423.148 292.013 423.79 292.421 424.257 292.995C424.257 292.995 425.254 286.017 429.97 286.017C434.686 286.017 436.889 292.028 436.889 292.028C437.286 291.452 437.843 291.004 438.492 290.74C439.14 290.476 439.851 290.408 440.538 290.543C443.16 290.852 443.26 296.814 443.26 296.814Z" fill="#37474F"/>
<path d="M328.067 3.25012H311.019V12.911H328.067V3.25012Z" fill="#263238"/>
<path d="M330.47 0H308.606V6.32092H330.47V0Z" fill="#455A64"/>
<path d="M289.948 12.7983L285.302 17.4441L292.641 24.7829L297.287 20.1371L289.948 12.7983Z" fill="#263238"/>
<path d="M288.849 8.95799L281.468 16.3391L286.262 21.133L293.643 13.7518L288.849 8.95799Z" fill="#455A64"/>
<path d="M341.798 20.129L346.444 24.7748L353.783 17.436L349.137 12.7901L341.798 20.129Z" fill="#263238"/>
<path d="M345.422 13.7566L352.803 21.1377L357.597 16.3438L350.216 8.96274L345.422 13.7566Z" fill="#455A64"/>
<path d="M359.869 62.5892C365.096 40.3045 351.268 18.0021 328.984 12.7753C306.699 7.54852 284.397 21.3766 279.17 43.6612C273.943 65.9458 287.771 88.2482 310.056 93.475C332.34 98.7018 354.643 84.8738 359.869 62.5892Z" fill="#455A64"/>
<path d="M319.034 91.9923C340.872 91.9923 358.575 74.2893 358.575 52.4516C358.575 30.6139 340.872 12.911 319.034 12.911C297.197 12.911 279.494 30.6139 279.494 52.4516C279.494 74.2893 297.197 91.9923 319.034 91.9923Z" fill="#263238"/>
<path d="M354.087 58.0007C356.878 38.9154 343.669 21.1812 324.583 18.3901C305.498 15.5991 287.764 28.8082 284.973 47.8935C282.182 66.9788 295.391 84.713 314.476 87.5041C333.561 90.2951 351.296 77.086 354.087 58.0007Z" fill="white"/>
<path opacity="0.5" d="M354.467 52.9601H319.573V18.0654C328.827 18.0654 337.703 21.7418 344.247 28.2858C350.791 34.8299 354.467 43.7054 354.467 52.9601Z" fill="#F39237"/>
<path d="M319.882 20.5679H319.204V25.8619H319.882V20.5679Z" fill="#C7C7C7"/>
<path d="M303.631 24.7161L303.044 25.0551L305.691 29.6398L306.278 29.3008L303.631 24.7161Z" fill="#C7C7C7"/>
<path d="M291.645 36.4565L291.306 37.0436L295.891 39.6906L296.23 39.1035L291.645 36.4565Z" fill="#C7C7C7"/>
<path d="M292.445 52.6211H287.151V53.299H292.445V52.6211Z" fill="#C7C7C7"/>
<path d="M297.091 66.5514L292.485 69.1984L292.824 69.7882L297.43 67.1412L297.091 66.5514Z" fill="#C7C7C7"/>
<path d="M305.694 76.2596L303.05 80.8458L303.637 81.1844L306.281 76.5983L305.694 76.2596Z" fill="#C7C7C7"/>
<path d="M319.882 80.0583H319.204V85.3524H319.882V80.0583Z" fill="#C7C7C7"/>
<path d="M333.375 76.2416L332.788 76.5806L335.435 81.1653L336.022 80.8263L333.375 76.2416Z" fill="#C7C7C7"/>
<path d="M343.172 66.1904L342.833 66.7776L347.417 69.4246L347.756 68.8375L343.172 66.1904Z" fill="#C7C7C7"/>
<path d="M351.934 52.6211H346.64V53.299H351.934V52.6211Z" fill="#C7C7C7"/>
<path d="M347.419 36.4517L342.835 39.0988L343.174 39.6859L347.758 37.0389L347.419 36.4517Z" fill="#C7C7C7"/>
<path d="M335.437 24.7298L332.791 29.3154L333.379 29.6542L336.024 25.0685L335.437 24.7298Z" fill="#C7C7C7"/>
<path d="M319.782 27.6864L321.337 55.0338L317.828 54.9839L318.834 27.6764L319.782 27.6864Z" fill="#F39237"/>
<path d="M320.739 52.9601C320.739 53.1991 320.668 53.4327 320.535 53.6313C320.402 53.8299 320.213 53.9845 319.992 54.0755C319.771 54.1665 319.528 54.1898 319.294 54.1425C319.06 54.0951 318.845 53.9792 318.676 53.8095C318.508 53.6398 318.394 53.4239 318.349 53.1892C318.303 52.9546 318.328 52.7117 318.421 52.4915C318.514 52.2712 318.67 52.0835 318.87 51.9521C319.07 51.8208 319.304 51.7517 319.543 51.7537C319.701 51.7537 319.857 51.785 320.003 51.8457C320.149 51.9065 320.281 51.9955 320.392 52.1076C320.504 52.2198 320.592 52.3529 320.651 52.4992C320.711 52.6455 320.741 52.8021 320.739 52.9601Z" fill="#F39237"/>
<path d="M344.857 53.369L317.509 54.9143L317.559 51.4049L344.867 52.4119L344.857 53.369Z" fill="#263238"/>
<path d="M320.739 52.9601C320.739 53.1991 320.668 53.4327 320.535 53.6313C320.402 53.8299 320.213 53.9845 319.992 54.0755C319.771 54.1665 319.528 54.1898 319.294 54.1425C319.06 54.0951 318.845 53.9792 318.676 53.8095C318.508 53.6398 318.394 53.4239 318.349 53.1892C318.303 52.9546 318.328 52.7117 318.421 52.4915C318.514 52.2712 318.67 52.0835 318.87 51.9521C319.07 51.8208 319.304 51.7517 319.543 51.7537C319.701 51.7537 319.857 51.785 320.003 51.8457C320.149 51.9065 320.281 51.9955 320.392 52.1076C320.504 52.2198 320.592 52.3529 320.651 52.4992C320.711 52.6455 320.741 52.8021 320.739 52.9601Z" fill="#F39237"/>
<path d="M204.367 128.023C209.502 147.614 216.192 160.406 220.678 164.832C231.426 175.44 254.576 177.793 267.596 183.197C271.834 184.961 283.548 158.083 279.211 155.73C276.011 153.985 238.843 149.279 235.683 148.312C234.058 147.814 221.725 131.752 214.746 122.719C203.5 108.243 201.556 117.326 204.367 128.023Z" fill="#B16668"/>
<path d="M287.944 186.965C285.95 186.916 285.881 187.962 288.662 190.265C291.444 192.569 304.395 199.238 301.673 203.575C298.951 207.912 280.816 198.182 276.479 194.014C272.142 189.847 266.569 181.592 266.569 181.592C270.487 182.778 280.268 184.742 287.944 186.965Z" fill="#B16668"/>
<path d="M276.081 154.882C295.382 157.873 303.059 161.652 311.514 171.522C312.479 172.588 313.061 173.946 313.169 175.38C317.037 179.727 316.16 182.868 316.16 182.868C318.513 188.022 317.157 191.103 317.157 191.103C317.157 191.103 321.643 196.257 318.971 199.488C315.98 203.117 310.278 195.161 304.465 192.708C291.135 187.075 270.567 182.808 266.579 181.572L276.081 154.882Z" fill="#B16668"/>
<path d="M294.604 177.015C298.527 178.612 302.334 180.477 306 182.599C309.864 185.165 313.53 188.017 316.967 191.133C316.99 191.146 317.017 191.151 317.044 191.147C317.07 191.143 317.095 191.131 317.113 191.111C317.132 191.091 317.143 191.066 317.146 191.039C317.148 191.013 317.141 190.986 317.126 190.963C311.078 184.29 303.316 179.404 294.684 176.836C294.485 176.776 294.405 176.926 294.604 177.015Z" fill="#263238"/>
<path d="M296.828 168.471C300.527 170.366 306.987 173.745 316.03 182.977C316.03 182.977 316.12 182.977 316.09 182.977C311.182 176.411 304.544 171.34 296.918 168.332C296.678 168.192 296.588 168.342 296.828 168.471Z" fill="#263238"/>
<path d="M298.113 163.905C304.265 167.375 307.705 170.336 313.118 175.4C313.118 175.4 313.198 175.4 313.168 175.351C307.635 168.95 304.903 167.255 298.213 163.676C297.974 163.556 297.874 163.766 298.113 163.905Z" fill="#263238"/>
<path d="M226.261 136.907L208.484 153.566C208.484 153.566 201.306 127.724 201.356 119.549C201.356 110.327 206.101 112.361 212.323 118.552C218.544 124.743 226.261 136.907 226.261 136.907Z" fill="#F39237"/>
<path opacity="0.1" d="M226.261 136.907L208.484 153.566C208.484 153.566 201.306 127.724 201.356 119.549C201.356 110.327 206.101 112.361 212.323 118.552C218.544 124.743 226.261 136.907 226.261 136.907Z" fill="black"/>
<path d="M222.621 134.275C220.069 136.089 213.18 142.609 212.023 143.676C211.415 144.244 209.102 146.587 208.494 147.146C208.414 147.215 208.494 147.325 208.614 147.255C209.78 146.199 211.056 145.261 212.223 144.195C213.389 143.128 220.647 136.757 222.701 134.364C222.751 134.314 222.681 134.235 222.621 134.275Z" fill="#263238"/>
<path d="M320.467 336.823C318.054 337.611 248.584 334.829 245.982 333.144C245.663 332.955 244.426 319.595 244.426 319.595L252.462 268.26L298.074 268.868L289.271 312.736C289.271 312.736 299.321 317.362 307.606 321.399C312.71 323.872 317.147 326.135 318.164 326.963C320.836 329.096 322.889 336.045 320.467 336.823Z" fill="#B16668"/>
<path d="M320.476 336.823C318.063 337.611 248.573 334.829 245.981 333.154C245.672 332.955 244.416 319.595 244.416 319.595L246.898 303.783L290.656 305.777L289.24 312.696C289.24 312.696 299.28 317.322 307.575 321.35C312.68 323.822 317.116 326.085 318.133 326.913C320.825 329.106 322.879 336.055 320.476 336.823Z" fill="#EBEBEB"/>
<path d="M320.436 336.893C317.973 337.66 248.044 336.035 245.422 334.281C244.425 333.633 244.056 323.423 243.977 311.081V310.702L289.11 311.25V312.008C289.11 312.008 315.6 324.61 318.282 326.843C320.964 329.076 322.898 336.155 320.436 336.893Z" fill="#C7C7C7"/>
<path d="M316.448 337.092C301.144 337.252 247.655 335.816 245.422 334.291C244.425 333.643 244.056 323.433 243.977 311.091V310.712L272.241 311.051L316.448 337.092Z" fill="#A6A6A6"/>
<path d="M319.709 334.181C307.924 333.613 260.348 332.446 248.663 332.785C248.563 332.785 248.563 332.855 248.663 332.865C260.328 333.672 307.904 334.45 319.699 334.37C319.948 334.37 319.958 334.191 319.709 334.181Z" fill="#263238"/>
<path d="M292.86 312.247C288.243 311.25 282.551 311.848 278.902 315.079C278.762 315.198 278.902 315.398 279.091 315.348C283.558 314.023 288.153 313.18 292.8 312.835C292.871 312.832 292.939 312.803 292.991 312.753C293.042 312.704 293.075 312.638 293.082 312.567C293.089 312.496 293.071 312.425 293.03 312.366C292.989 312.307 292.929 312.265 292.86 312.247Z" fill="#263238"/>
<path d="M296.16 314.341C291.544 313.344 285.851 313.952 282.202 317.172C282.063 317.292 282.202 317.491 282.392 317.451C286.869 316.131 291.475 315.295 296.13 314.959C296.212 314.963 296.292 314.934 296.353 314.879C296.414 314.824 296.45 314.747 296.454 314.665C296.458 314.583 296.429 314.503 296.374 314.442C296.319 314.381 296.242 314.345 296.16 314.341Z" fill="#263238"/>
<path d="M299.459 316.435C294.843 315.438 289.15 316.046 285.502 319.266C285.362 319.396 285.502 319.585 285.691 319.545C290.157 318.217 294.753 317.372 299.4 317.023C299.471 317.019 299.539 316.99 299.59 316.941C299.642 316.892 299.675 316.825 299.682 316.754C299.689 316.683 299.671 316.612 299.63 316.553C299.589 316.495 299.529 316.453 299.459 316.435Z" fill="#263238"/>
<path d="M293.098 306.096L242.182 303.783C242.182 303.783 259.779 232.328 257.905 230.006C255.911 227.513 182.193 245.957 167.458 227.673C152.363 208.939 159.93 181.971 159.93 181.971H210.209C210.209 181.971 209.212 188.72 209.89 191.94C209.89 191.94 280.676 181.113 296.069 189.268C299.06 190.874 310.027 199.886 310.207 208.431C311.174 246.167 293.098 306.096 293.098 306.096Z" fill="#455A64"/>
<path d="M293.607 296.874C287.565 296.116 281.514 295.657 275.442 295.199C269.37 294.74 263.299 294.381 257.227 294.152C253.797 294.012 250.368 294.042 246.938 293.923C246.92 293.929 246.905 293.94 246.894 293.955C246.883 293.971 246.878 293.989 246.878 294.007C246.878 294.026 246.883 294.044 246.894 294.059C246.905 294.074 246.92 294.086 246.938 294.092C249.989 294.311 253.03 294.7 256.08 294.939L265.113 295.597C271.185 295.996 277.256 296.335 283.328 296.704C286.748 296.914 290.167 297.023 293.597 297.103C293.622 297.097 293.644 297.083 293.661 297.063C293.677 297.043 293.687 297.018 293.688 296.992C293.689 296.966 293.682 296.941 293.667 296.919C293.653 296.898 293.631 296.882 293.607 296.874Z" fill="#263238"/>
<path d="M265.752 224.931C255.971 225.25 246.241 226.097 236.51 227.054C226.779 228.011 216.989 229.048 207.179 229.686C202.313 229.996 197.428 230.195 192.543 230.225C188.485 230.399 184.424 229.976 180.489 228.969C176.583 227.827 173.244 225.267 171.127 221.79C169 218.267 167.606 214.35 167.03 210.275C165.744 202.03 167.03 193.605 168.535 185.47C168.725 184.473 168.914 183.476 169.094 182.399C169.094 182.309 168.964 182.27 168.934 182.399C166.94 190.604 165.076 199.049 165.674 207.523C165.918 211.682 166.933 215.759 168.665 219.547C170.227 223.228 172.915 226.32 176.342 228.38C179.841 230.374 183.979 230.963 187.996 231.162C192.682 231.401 197.428 231.162 202.114 230.953C212.144 230.464 222.133 229.427 232.103 228.39C242.073 227.354 251.993 226.337 262.013 225.838C263.12 225.778 264.226 225.738 265.333 225.698C263.818 234.671 250.986 288.09 250.268 292.317C250.199 292.736 250.597 292.866 250.707 292.437C252.901 284.112 265.353 230.624 266.18 225.399C266.194 225.339 266.192 225.276 266.176 225.215C266.16 225.155 266.129 225.1 266.087 225.054C266.045 225.008 265.993 224.973 265.935 224.952C265.876 224.93 265.813 224.923 265.752 224.931Z" fill="#263238"/>
<path d="M305.003 338.907H196.191V350.94H305.003V338.907Z" fill="#F39237"/>
<path d="M100.571 233.335H106.742L146.622 278.958H140.45L100.571 233.335Z" fill="#A6A6A6"/>
<path d="M178.296 229.716H92.5344V233.325H178.296V229.716Z" fill="#A6A6A6"/>
<path d="M123.84 233.335H130.011L169.891 278.958H163.719L123.84 233.335Z" fill="#A6A6A6"/>
<path d="M163.52 317.442C194.506 317.442 212.462 338.967 212.462 364.3C212.462 389.634 195.832 410.67 165.614 410.67C132.175 410.67 116.203 384.07 116.203 364.071C116.203 344.071 132.155 317.442 163.52 317.442Z" fill="#37474F"/>
<path d="M158.755 317.442C188.216 317.442 205.274 338.967 205.274 364.3C205.274 389.634 189.472 410.67 160.729 410.67C128.935 410.67 113.77 384.03 113.77 364.031C113.77 344.031 128.935 317.442 158.755 317.442Z" fill="#263238"/>
<path d="M159.053 335.637C176.999 335.637 187.398 348.757 187.398 364.19C187.398 379.624 177.767 392.435 160.259 392.435C140.878 392.435 131.626 376.224 131.626 364.031C131.626 351.838 140.878 335.637 159.053 335.637Z" fill="#C7C7C7"/>
<path d="M251.235 260.643V256.565L146.96 259.925V269.097C146.96 269.097 116.761 302.447 113.71 337.112L218.275 339.325L235.074 338.907H255.702V317.95C255.702 317.95 240.109 306.584 242.841 283.364C243.748 275.658 251.235 260.643 251.235 260.643Z" fill="#F39237"/>
<path d="M208.534 334.47C207.447 336.464 191.585 339.325 161.516 340.133C134.448 340.861 114.229 340.263 112.664 338.518C111.098 336.773 115.086 305.916 133.411 289.207C151.736 272.497 177.677 270.094 194.786 280.064C209.83 288.808 221.056 311.031 208.534 334.47Z" fill="#F39237"/>
<path opacity="0.1" d="M213.639 305.258C212.031 297.952 208.323 291.274 202.971 286.046C197.605 280.67 190.905 276.82 183.559 274.89C175.365 272.845 166.783 272.937 158.635 275.159C154.557 276.229 150.613 277.757 146.88 279.715C142.938 281.834 139.224 284.349 135.794 287.223C134.876 287.98 133.949 288.738 133.042 289.516C132.962 289.576 133.042 289.685 133.162 289.626C136.613 286.591 140.349 283.896 144.318 281.58C147.94 279.511 151.782 277.856 155.773 276.645C163.686 274.17 172.089 273.697 180.229 275.269C187.587 276.747 194.405 280.193 199.96 285.239C205.312 290.057 209.249 296.245 211.345 303.135C213.838 311.529 213.02 320.772 210.538 329.056C210.209 330.173 209.85 331.27 209.481 332.366C209.481 332.486 209.621 332.526 209.661 332.416C213.01 323.812 215.513 314.54 213.639 305.258Z" fill="black"/>
<path d="M141.158 343.313C123.003 343.313 113.392 342.755 108.517 340.821L110.78 335.128C116.482 337.391 134.339 337.351 163.072 337.022C184.298 336.773 199.96 334.769 209.731 331.04L211.914 336.763C201.346 340.751 185.394 342.865 163.142 343.124C154.697 343.244 147.419 343.313 141.158 343.313Z" fill="#DBDBDB"/>
<path d="M252.95 259.247C252.95 259.247 253.648 236.436 252.95 235.539C252.252 234.642 146.691 232.737 143.53 233.016C140.37 233.296 140.051 259.935 140.29 261.181C140.529 262.428 250.198 259.487 252.95 259.247Z" fill="#37474F"/>
<path d="M262.84 235.997C262.531 235.638 249.152 235.26 248.414 235.24C247.676 235.22 247.417 259.536 247.816 259.516C248.214 259.496 262.352 259.696 262.82 259.177C263.289 258.659 263.508 236.775 262.84 235.997Z" fill="#455A64"/>
<path d="M188.903 233.036C188.525 233.431 188.278 233.932 188.195 234.472C188.07 235.041 187.98 235.617 187.926 236.197C187.796 237.353 187.727 238.53 187.667 239.696C187.567 242.049 187.507 244.412 187.467 246.785C187.427 249.158 187.368 251.511 187.467 253.853C187.476 255.014 187.556 256.172 187.707 257.323C187.767 257.879 187.897 258.425 188.095 258.948C188.168 259.183 188.297 259.396 188.471 259.57C188.645 259.743 188.858 259.872 189.092 259.945C188.829 259.937 188.574 259.854 188.357 259.706C188.139 259.558 187.969 259.35 187.866 259.108C187.587 258.586 187.37 258.034 187.218 257.463C186.936 256.294 186.753 255.103 186.67 253.903C186.486 251.515 186.426 249.119 186.49 246.725C186.55 244.342 186.65 241.949 186.919 239.567C187.048 238.375 187.238 237.19 187.487 236.017C187.626 235.437 187.796 234.865 187.996 234.303C188.155 233.814 188.434 233.206 188.903 233.036Z" fill="#455A64"/>
<path d="M96.502 229.667H196.191V167.694H96.502L96.502 229.667Z" fill="#37474F"/>
<path d="M96.5019 229.667H168.524V167.694H96.5019L96.5019 229.667Z" fill="#263238"/>
<path d="M136.392 167.684H128.645V229.657H136.392V167.684Z" fill="#F39237"/>
<path d="M168.535 161.951H94.4783V167.684H168.535V161.951Z" fill="#37474F"/>
<path d="M198.424 161.951H168.524V167.684H198.424V161.951Z" fill="#263238"/>
<path d="M137.04 161.951H127.987V167.684H137.04V161.951Z" fill="#F39237"/>
<path d="M107.06 162.21H179.831V116.967H107.06V162.21Z" fill="#37474F"/>
<path d="M107.061 162.21H159.632V116.967H107.061V162.21Z" fill="#263238"/>
<path d="M136.172 116.977H130.519V162.22H136.172V116.977Z" fill="#F39237"/>
<path d="M159.632 112.789H105.575V116.977H159.632V112.789Z" fill="#37474F"/>
<path d="M181.456 112.789H159.632V116.977H181.456V112.789Z" fill="#263238"/>
<path d="M136.651 112.789H130.041V116.977H136.651V112.789Z" fill="#F39237"/>
<path d="M391.113 317.063C422.109 317.063 440.055 338.588 440.055 363.921C440.055 389.255 423.425 410.261 393.197 410.261C359.748 410.261 343.776 383.662 343.776 363.672C343.776 343.682 359.748 317.063 391.113 317.063Z" fill="#37474F"/>
<path d="M386.347 317.063C415.808 317.063 432.876 338.588 432.876 363.921C432.876 389.255 417.064 410.261 388.331 410.261C356.537 410.261 341.353 383.662 341.353 363.672C341.353 343.682 356.537 317.063 386.347 317.063Z" fill="#263238"/>
<path d="M386.647 335.258C404.592 335.258 415.001 348.378 415.001 363.811C415.001 379.245 405.37 392.056 387.853 392.056C368.481 392.056 359.229 375.845 359.229 363.662C359.229 351.479 368.481 335.258 386.647 335.258Z" fill="#C7C7C7"/>
<path d="M340.975 211.232H328.782L320.427 198.969H334.714L340.975 211.232Z" fill="#F39237"/>
<path d="M320.427 198.969L325.322 206.148L328.782 211.232H340.975L337.675 204.772L334.704 198.969H320.427Z" fill="#F39237"/>
<path opacity="0.1" d="M320.427 198.969L325.322 206.148L337.675 204.772L334.704 198.969H320.427Z" fill="black"/>
<path d="M370.605 302.746L358.73 305.478L347.843 295.388L361.761 292.198L370.605 302.746Z" fill="#F39237"/>
<path d="M347.843 295.388L354.214 301.3L358.72 305.478L370.615 302.746L365.949 297.193L361.761 292.198L347.843 295.388Z" fill="#F39237"/>
<path opacity="0.1" d="M347.843 295.388L354.214 301.3L365.949 297.193L361.761 292.198L347.843 295.388Z" fill="black"/>
<path d="M437.363 323.045L425.828 329.106C425.828 329.106 392.419 323.045 370.993 327.631C349.568 332.217 343.786 343.662 343.786 343.662H332.958C332.958 343.662 342.25 310.652 358.013 298.668C373.775 286.684 399.109 289.366 413.116 296.913C427.124 304.461 437.363 323.045 437.363 323.045Z" fill="#F39237"/>
<path opacity="0.1" d="M424.612 326.823C422.377 324.49 419.957 322.343 417.374 320.403C414.814 318.413 412.108 316.62 409.278 315.039C403.793 311.99 397.777 310.014 391.552 309.216C379.369 307.721 366.627 311.27 357.654 320.632C352.609 325.936 349.02 332.446 345.611 339.016C345.561 339.116 345.7 339.196 345.75 339.096C348.639 333.319 352.287 327.955 356.597 323.144C360.751 318.609 365.92 315.124 371.682 312.975C383.177 308.758 395.61 310.373 406.656 315.467C409.819 316.901 412.872 318.567 415.789 320.452C418.772 322.461 421.65 324.621 424.413 326.923C424.43 326.939 424.453 326.949 424.477 326.953C424.501 326.956 424.525 326.952 424.546 326.941C424.568 326.93 424.586 326.913 424.597 326.892C424.609 326.871 424.614 326.847 424.612 326.823Z" fill="black"/>
<path d="M297.845 204.632C297.665 205.051 273.588 209.477 273.588 209.477C273.588 209.477 269.6 206.786 272.062 203.376L296.22 198.162C297.148 198.923 297.807 199.964 298.1 201.129C298.393 202.294 298.303 203.522 297.845 204.632Z" fill="#263238"/>
<path d="M348.382 173.506V202.07C348.382 202.07 332.959 200.724 328.851 200.584C324.744 200.445 306.489 202.808 306.489 202.808L305.073 196.407C305.073 196.407 319.151 191.492 325.133 187.653C331.114 183.815 338.004 176.477 341.703 174.852C343.796 173.895 346.082 173.435 348.382 173.506Z" fill="#F39237"/>
<path d="M306.548 195.599C307.465 196.542 308.156 197.681 308.571 198.929C308.985 200.177 309.112 201.503 308.941 202.808C308.941 202.808 297.445 204.911 297.306 204.911C297.401 203.559 297.073 202.21 296.368 201.053C295.662 199.895 294.613 198.986 293.368 198.451L306.548 195.599Z" fill="#DBDBDB"/>
<path d="M348.532 202.07C352.705 202.07 356.089 195.678 356.089 187.793C356.089 179.908 352.705 173.516 348.532 173.516C344.358 173.516 340.974 179.908 340.974 187.793C340.974 195.678 344.358 202.07 348.532 202.07Z" fill="#DBDBDB"/>
<path d="M349 200.534C352.574 200.534 355.471 194.83 355.471 187.793C355.471 180.756 352.574 175.051 349 175.051C345.427 175.051 342.53 180.756 342.53 187.793C342.53 194.83 345.427 200.534 349 200.534Z" fill="white"/>
<path d="M350.965 211.272C353.477 214.951 363.537 264.98 365.511 267.492C367.485 270.005 371.263 270.184 371.263 270.184L377.913 286.714C377.913 286.714 361.393 291.929 352.221 299.466C340.367 309.206 329.41 341.499 329.41 341.499C327.615 342.755 305.342 351.917 299.231 352.276C299.231 352.276 327.635 321.091 329.948 277.931C330.845 261.211 320.557 237.662 319.889 225.998C319.151 213.475 322.939 211.272 329.589 211.272H350.965Z" fill="#F39237"/>
<path d="M297.865 355.836L293.418 351.628C318.343 325.248 327.535 283.683 326.807 272.338C326.428 266.525 324.564 260.025 322.58 253.136C320.466 245.788 318.074 237.463 317.057 228.42C316.11 220.026 317.057 214.602 319.918 211.362C322.779 208.122 326.708 208.132 329.32 208.141H353.048V214.263H329.31C327.027 214.263 325.471 214.343 324.484 215.449C323.497 216.556 322.211 219.437 323.148 227.742C324.145 236.267 326.329 243.983 328.472 251.441C330.546 258.659 332.46 265.468 332.919 271.939C333.696 284.052 324.135 328.149 297.865 355.836Z" fill="#DBDBDB"/>
<path d="M365.63 281.141C367.026 286.286 371.423 289.556 375.451 288.459C379.479 287.362 381.622 282.308 380.216 277.173C378.811 272.039 374.414 268.749 370.386 269.845C366.358 270.942 364.225 276.007 365.63 281.141Z" fill="#DBDBDB"/>
<path d="M367.126 280.732C368.372 285.318 372.18 288.27 375.63 287.332C379.08 286.395 380.854 281.919 379.618 277.363C378.382 272.806 374.563 269.825 371.124 270.762C367.684 271.7 365.879 276.146 367.126 280.732Z" fill="white"/>
<path opacity="0.1" d="M347.993 280.314C346.886 275.139 345.69 269.985 344.653 264.8C343.616 259.616 342.659 254.422 341.851 249.208C341.064 244.352 340.216 239.447 339.907 234.532C339.598 229.397 339.907 224.213 342.4 219.577C342.405 219.568 342.408 219.558 342.409 219.547C342.411 219.537 342.41 219.526 342.407 219.516C342.405 219.506 342.4 219.496 342.393 219.488C342.387 219.48 342.379 219.473 342.37 219.467C342.36 219.462 342.35 219.459 342.34 219.457C342.329 219.456 342.319 219.457 342.309 219.46C342.298 219.462 342.289 219.467 342.281 219.474C342.272 219.48 342.265 219.488 342.26 219.497C339.698 223.236 338.86 227.732 338.721 232.189C338.734 237.102 339.167 242.005 340.017 246.845C341.471 257.471 343.468 268.016 345.999 278.439C347.444 284.331 349.309 290.124 351.303 295.847C351.303 295.865 351.31 295.883 351.323 295.896C351.336 295.909 351.354 295.916 351.372 295.916C351.391 295.916 351.409 295.909 351.422 295.896C351.435 295.883 351.442 295.865 351.442 295.847C350.253 290.642 349.103 285.465 347.993 280.314Z" fill="black"/>
<path opacity="0.1" d="M255.701 317.95V338.887H237.835V323.035C237.835 323.035 227.865 318 225.871 299.685C224.077 283.095 237.317 260.952 239.829 256.934L251.205 256.565V260.643C251.205 260.643 243.718 275.658 242.81 283.364C240.108 306.584 255.701 317.95 255.701 317.95Z" fill="black"/>
<path d="M300.636 343.782C298.223 344.56 228.743 341.788 226.141 340.103C225.832 339.914 224.595 326.544 224.595 326.544L232.631 275.209L278.243 275.817L269.44 319.685C269.44 319.685 279.48 324.301 287.775 328.339C292.879 330.821 297.316 333.084 298.333 333.902C300.995 336.055 303.048 343.004 300.636 343.782Z" fill="#B16668"/>
<path d="M300.646 343.782C298.223 344.56 228.743 341.788 226.151 340.103C225.832 339.914 224.586 326.554 224.586 326.554L227.068 310.732L270.826 312.726L269.44 319.625C269.44 319.625 279.48 324.251 287.775 328.279C292.87 330.761 297.316 333.024 298.333 333.842C300.995 336.065 303.049 343.004 300.646 343.782Z" fill="#EBEBEB"/>
<path d="M300.596 343.872C298.143 344.639 228.204 343.004 225.582 341.25C224.585 340.602 224.226 330.402 224.147 318.06V317.671L269.27 318.219V318.987C269.27 318.987 295.76 331.579 298.442 333.812C301.124 336.045 303.058 343.104 300.596 343.872Z" fill="#C7C7C7"/>
<path d="M299.869 341.13C288.094 340.572 240.518 339.405 228.833 339.744C228.733 339.744 228.733 339.814 228.833 339.814C240.498 340.631 288.074 341.409 299.869 341.329C300.118 341.319 300.118 341.14 299.869 341.13Z" fill="#263238"/>
<path d="M273.03 319.196C268.414 318.199 262.721 318.807 259.072 322.028C258.922 322.157 259.072 322.347 259.261 322.307C263.727 320.978 268.323 320.132 272.97 319.784C273.041 319.781 273.109 319.752 273.161 319.702C273.213 319.653 273.245 319.587 273.252 319.516C273.259 319.445 273.241 319.374 273.2 319.315C273.159 319.256 273.099 319.214 273.03 319.196Z" fill="#263238"/>
<path d="M276.33 321.3C271.714 320.303 266.021 320.901 262.372 324.121C262.233 324.251 262.372 324.45 262.562 324.4C267.031 323.071 271.63 322.225 276.28 321.878C276.318 321.881 276.356 321.877 276.393 321.866C276.429 321.854 276.463 321.836 276.492 321.811C276.521 321.786 276.545 321.756 276.563 321.723C276.58 321.689 276.591 321.652 276.594 321.614C276.597 321.576 276.593 321.538 276.582 321.501C276.57 321.465 276.552 321.431 276.527 321.402C276.503 321.373 276.473 321.349 276.439 321.331C276.405 321.314 276.368 321.303 276.33 321.3Z" fill="#263238"/>
<path d="M279.629 323.394C275.013 322.397 269.32 322.995 265.671 326.225C265.532 326.345 265.671 326.544 265.861 326.494C270.329 325.174 274.924 324.332 279.57 323.982C279.641 323.978 279.709 323.949 279.76 323.9C279.812 323.851 279.845 323.784 279.852 323.713C279.859 323.642 279.841 323.571 279.8 323.512C279.759 323.454 279.699 323.412 279.629 323.394Z" fill="#263238"/>
<path d="M273.289 313.055L222.373 310.732C222.373 310.732 239.98 239.277 238.105 236.954C236.111 234.452 168.974 252.906 154.228 234.622C139.134 215.888 154.228 184.533 154.228 184.533H205.843C205.843 184.533 205.843 190.275 202.333 198.869C202.333 198.869 260.856 188.032 276.28 196.188C279.321 197.803 290.238 206.815 290.417 215.36C291.314 253.146 273.289 313.055 273.289 313.055Z" fill="#455A64"/>
<path d="M273.777 303.833C267.735 303.075 261.674 302.606 255.602 302.158C249.53 301.709 243.469 301.34 237.387 301.101C233.967 300.971 230.538 301.001 227.108 300.872C227.084 300.872 227.061 300.881 227.045 300.898C227.028 300.915 227.018 300.938 227.018 300.961C227.018 300.985 227.028 301.008 227.045 301.025C227.061 301.042 227.084 301.051 227.108 301.051C230.159 301.27 233.2 301.649 236.25 301.889C239.301 302.128 242.232 302.347 245.283 302.547C251.345 302.955 257.417 303.284 263.488 303.663C266.918 303.873 270.338 303.982 273.767 304.062C273.792 304.056 273.815 304.042 273.831 304.022C273.847 304.002 273.857 303.977 273.858 303.951C273.859 303.925 273.852 303.9 273.837 303.878C273.823 303.857 273.802 303.841 273.777 303.833Z" fill="#263238"/>
<path d="M175.813 188.85C175.745 189.06 175.659 189.264 175.554 189.458C175.542 189.472 175.536 189.49 175.536 189.508C175.536 189.526 175.542 189.543 175.554 189.558C174.955 191.422 174.706 193.396 174.128 195.27C173.579 197.26 172.36 198.999 170.678 200.195C167.149 202.648 162.912 203.755 158.804 204.772C158.78 204.779 158.758 204.794 158.742 204.815C158.727 204.835 158.719 204.861 158.719 204.886C158.719 204.912 158.727 204.937 158.742 204.958C158.758 204.978 158.78 204.994 158.804 205.001C161.172 205.014 163.527 204.654 165.783 203.934C167.903 203.347 169.901 202.389 171.685 201.103C173.361 199.835 174.556 198.035 175.075 195.998C175.326 194.915 175.522 193.821 175.663 192.718C175.894 191.45 176.031 190.167 176.072 188.88C176.057 188.86 176.039 188.844 176.018 188.831C175.997 188.819 175.973 188.812 175.949 188.809C175.925 188.806 175.9 188.808 175.877 188.815C175.853 188.822 175.832 188.834 175.813 188.85Z" fill="#263238"/>
<path d="M210.638 196.317C207.831 197.127 205.096 198.171 202.463 199.438L202.333 199.498C202.387 199.335 202.427 199.168 202.453 198.999C202.453 198.8 202.513 198.61 202.553 198.411C202.592 198.211 202.553 198.002 202.612 197.793V197.474C202.952 197.452 203.283 197.36 203.585 197.204C203.887 197.048 204.153 196.831 204.367 196.566C204.918 195.801 205.289 194.922 205.454 193.994C205.763 192.838 206.052 191.661 206.301 190.485C206.55 189.308 206.82 187.863 207.029 186.497C207.282 185.205 207.432 183.895 207.478 182.579C207.478 182.531 207.459 182.485 207.425 182.452C207.391 182.418 207.346 182.399 207.298 182.399C207.251 182.399 207.205 182.418 207.171 182.452C207.138 182.485 207.119 182.531 207.119 182.579C206.81 183.785 206.67 185.031 206.441 186.248C206.211 187.464 205.952 188.69 205.673 189.907C205.394 191.123 205.095 192.339 204.756 193.536C204.417 194.732 204.158 196.158 202.921 196.527C200.369 197.254 201.516 191.542 201.625 190.405C201.885 187.813 202.044 185.161 202.503 182.589C202.503 182.489 202.353 182.439 202.333 182.589C201.775 184.951 201.147 187.274 200.728 189.667C200.519 190.844 200.369 192.03 200.239 193.207C200.032 194.226 200.115 195.283 200.479 196.257C200.637 196.587 200.873 196.872 201.167 197.089C201.46 197.306 201.803 197.449 202.164 197.504L202.084 197.773C202.024 197.962 201.964 198.152 201.914 198.341C201.865 198.53 201.825 198.73 201.785 198.919C201.697 199.144 201.666 199.387 201.695 199.627C201.717 199.694 201.763 199.751 201.825 199.787C200.738 200.255 199.641 200.724 198.565 201.232C197.211 201.764 195.901 202.401 194.646 203.137C194.497 203.206 194.646 203.406 194.756 203.376C196.16 202.982 197.533 202.485 198.864 201.89C200.23 201.372 201.575 200.814 202.931 200.245C205.617 199.259 208.215 198.049 210.698 196.626C210.739 196.618 210.775 196.594 210.798 196.56C210.822 196.525 210.83 196.483 210.823 196.442C210.815 196.401 210.791 196.365 210.756 196.341C210.722 196.318 210.679 196.309 210.638 196.317Z" fill="#263238"/>
<path d="M288.902 208.869C287.136 203.677 283.562 199.293 278.832 196.517C273.977 193.835 268.314 193.117 262.88 192.947C256.559 192.758 250.199 193.087 243.888 193.486C237.168 193.904 230.448 194.543 223.768 195.48C217.089 196.417 210.528 197.563 203.958 198.979C202.383 199.318 200.818 199.737 199.252 200.176C199.133 200.176 199.153 200.435 199.252 200.415C205.783 199.498 212.283 198.421 218.813 197.524C225.344 196.626 231.944 195.918 238.544 195.42C245.144 194.921 251.674 194.642 258.244 194.543C263.628 194.463 269.211 194.543 274.326 196.277C276.855 197.085 279.197 198.39 281.215 200.116C283.197 201.888 284.822 204.023 286 206.407C288.692 211.701 288.942 217.772 289.211 223.635C289.988 241.032 277.476 296.315 275.253 305.198C275.247 305.276 275.269 305.352 275.314 305.415C275.359 305.478 275.425 305.523 275.5 305.542C275.575 305.561 275.654 305.553 275.724 305.519C275.794 305.486 275.849 305.429 275.881 305.358C278.383 295.328 290.836 243.106 290.836 227.413C290.846 221.152 291.075 214.771 288.902 208.869Z" fill="#263238"/>
<path d="M245.582 230.933C236.46 231.252 227.387 232.099 218.315 233.056C209.242 234.013 200.1 235.05 190.967 235.688C186.421 235.997 181.865 236.197 177.309 236.227C173.52 236.404 169.728 235.98 166.072 234.97C162.36 233.771 159.239 231.21 157.339 227.802C155.344 224.231 154.048 220.313 153.52 216.257C152.324 208.012 153.52 199.587 154.926 191.452C155.106 190.455 155.275 189.458 155.455 188.391C155.455 188.291 155.325 188.252 155.305 188.391C153.401 196.596 151.696 205.041 152.314 213.515C152.54 217.657 153.482 221.728 155.096 225.549C156.503 229.165 159.006 232.25 162.254 234.372C165.599 236.162 169.328 237.116 173.121 237.154C177.512 237.318 181.908 237.249 186.291 236.945C195.643 236.456 204.955 235.419 214.257 234.382C223.559 233.345 232.801 232.328 242.113 231.83C243.11 231.78 244.177 231.73 245.204 231.7C243.798 240.623 231.834 294.082 231.166 298.309C231.096 298.728 231.475 298.858 231.575 298.439C233.569 290.104 245.233 236.625 246.001 231.391C246.014 231.332 246.013 231.27 245.998 231.211C245.982 231.152 245.952 231.098 245.911 231.053C245.87 231.008 245.819 230.973 245.762 230.953C245.704 230.932 245.643 230.925 245.582 230.933Z" fill="#263238"/>
<path d="M151.267 190.904C151.406 191.103 219.611 196.347 220.328 195.709C221.325 194.802 214.576 124.923 208.484 114.674C207.178 112.49 202.183 111.344 197.806 111.384C196.667 111.378 195.529 111.475 194.407 111.673H194.297C193.391 111.827 192.518 112.134 191.715 112.58C178.614 120.755 164.637 153.038 161.117 162.808C155.285 178.92 150.758 190.186 151.267 190.904Z" fill="#F39237"/>
<path d="M205.344 123.587C201.955 123.587 196.232 118.113 195.095 112.979C195.015 112.62 196.421 109.559 197.937 105.751C198.854 103.428 199.821 100.836 200.529 98.4028C200.668 97.8944 214.716 106.548 214.716 106.548C212.961 109.34 211.555 112.337 210.529 115.471C210.436 115.797 210.373 116.131 210.339 116.468C210.343 116.525 210.343 116.581 210.339 116.638C210.07 118.662 208.963 123.637 205.344 123.587Z" fill="#B16668"/>
<path d="M210.339 116.498C210.342 116.555 210.342 116.611 210.339 116.668C209.801 116.589 209.27 116.466 208.753 116.299C199.78 113.487 200.718 101.543 201.096 98.5623C203.699 99.7387 214.745 106.538 214.745 106.538C212.992 109.333 211.583 112.329 210.548 115.461C210.451 115.801 210.381 116.148 210.339 116.498Z" fill="#263238"/>
<path d="M201.775 79.7193C199.312 85.0831 200.07 101.653 203.549 105.761C208.604 111.743 217.976 113.547 223.35 107.226C228.554 101.095 227.188 79.5498 223.2 75.6715C217.308 69.9687 205.424 71.8132 201.775 79.7193Z" fill="#B16668"/>
<path d="M216.211 91.5236C216.211 91.5236 216.131 91.5834 216.131 91.6333C216.211 92.7399 216.131 94.036 215.134 94.4448C215.134 94.4448 215.134 94.5146 215.134 94.5046C216.361 94.2853 216.46 92.5705 216.211 91.5236Z" fill="#263238"/>
<path d="M215.165 90.407C213.37 90.3372 213.38 93.9463 215.045 94.0061C216.71 94.066 216.68 90.4569 215.165 90.407Z" fill="#263238"/>
<path d="M222.671 91.703C222.671 91.703 222.761 91.7528 222.751 91.8027C222.751 92.9094 222.871 94.1955 223.877 94.5644C223.877 94.5644 223.877 94.6341 223.877 94.6242C222.641 94.4547 222.442 92.7498 222.671 91.703Z" fill="#263238"/>
<path d="M223.669 90.5365C225.454 90.397 225.603 93.9961 223.938 94.1158C222.273 94.2354 222.163 90.6362 223.669 90.5365Z" fill="#263238"/>
<path d="M213.749 88.762C214.219 88.6212 214.682 88.4548 215.135 88.2635C215.65 88.1642 216.118 87.8937 216.461 87.4958C216.545 87.3496 216.58 87.1795 216.558 87.0119C216.536 86.8442 216.46 86.6884 216.341 86.5686C216.069 86.3699 215.749 86.2475 215.415 86.2142C215.08 86.1808 214.742 86.2378 214.437 86.3792C213.772 86.5661 213.202 86.9969 212.841 87.5855C212.769 87.724 212.737 87.8804 212.751 88.0362C212.765 88.192 212.823 88.3407 212.918 88.4645C213.014 88.5883 213.143 88.6822 213.29 88.7349C213.437 88.7876 213.596 88.797 213.749 88.762Z" fill="#263238"/>
<path d="M225.055 88.7121C224.569 88.6185 224.09 88.4953 223.619 88.3432C223.097 88.2906 222.608 88.0621 222.233 87.6951C222.132 87.5617 222.078 87.3989 222.078 87.2315C222.078 87.0642 222.132 86.9014 222.233 86.7679C222.487 86.5449 222.795 86.3939 223.126 86.3308C223.458 86.2676 223.8 86.2947 224.118 86.409C224.795 86.5366 225.4 86.9137 225.813 87.4658C225.896 87.5935 225.942 87.7423 225.945 87.8949C225.947 88.0476 225.907 88.1978 225.827 88.3283C225.748 88.4587 225.633 88.564 225.497 88.6319C225.36 88.6999 225.207 88.7277 225.055 88.7121Z" fill="#263238"/>
<path d="M215.194 101.882C215.463 102.141 215.732 102.5 216.191 102.54C216.605 102.528 217.013 102.429 217.387 102.251C217.387 102.251 217.457 102.251 217.437 102.311C217.278 102.53 217.062 102.703 216.813 102.81C216.564 102.917 216.29 102.955 216.021 102.919C215.792 102.861 215.585 102.734 215.429 102.556C215.272 102.378 215.173 102.157 215.144 101.922C215.074 101.872 215.154 101.842 215.194 101.882Z" fill="#263238"/>
<path d="M219.76 99.8485C219.292 100.466 218.67 100.951 217.956 101.254C217.565 101.406 217.137 101.434 216.73 101.334C215.842 101.105 215.812 100.337 215.972 99.5793C216.067 99.2107 216.201 98.8531 216.371 98.5125C217.329 99.309 218.517 99.7773 219.76 99.8485Z" fill="#263238"/>
<path d="M217.956 101.254C217.565 101.406 217.137 101.434 216.73 101.334C215.842 101.105 215.812 100.337 215.972 99.5793C216.443 99.5945 216.895 99.7681 217.255 100.072C217.615 100.376 217.862 100.793 217.956 101.254Z" fill="#FF9BBC"/>
<path d="M225.583 81.1449C224.974 79.7292 224.267 78.3035 223.409 78.0144C222.552 77.7252 222.003 79.8189 220.059 79.9485C217.447 80.128 216.181 77.7252 212.522 77.466C207.258 77.1071 204.945 81.454 204.825 88.9513C204.716 95.6112 200.688 96.2393 200.688 96.2393C200.688 96.2393 198.245 81.5537 202.383 76.6884C206.52 71.8231 216.021 69.7094 222.402 74.3155C224.725 76.0004 225.583 81.1449 225.583 81.1449Z" fill="#263238"/>
<path d="M204.048 93.6272C204.048 93.6272 200.987 87.9743 198.465 89.0012C195.942 90.0281 197.816 97.9741 200.459 99.3001C200.79 99.499 201.157 99.6288 201.54 99.6817C201.923 99.7347 202.312 99.7096 202.685 99.6081C203.057 99.5065 203.405 99.3306 203.708 99.0909C204.011 98.8512 204.262 98.5527 204.446 98.2134L204.048 93.6272Z" fill="#B16668"/>
<path d="M199.063 91.2444V91.3142C200.927 92.3112 201.745 94.3051 202.253 96.2293C202.162 96.0204 202.027 95.8337 201.857 95.6822C201.687 95.5306 201.486 95.4177 201.268 95.3514C201.05 95.285 200.82 95.2668 200.594 95.2979C200.368 95.329 200.152 95.4086 199.96 95.5314C199.9 95.5314 199.96 95.6511 199.96 95.6411C200.317 95.5728 200.686 95.6154 201.017 95.7634C201.349 95.9114 201.627 96.1575 201.814 96.4686C202.117 96.9969 202.364 97.5548 202.552 98.1336C202.622 98.313 202.951 98.2632 202.901 98.0538V98.004C203.24 95.5115 201.705 91.8027 199.063 91.2444Z" fill="#263238"/>
<path d="M224.955 76.7681C223.409 76.3992 214.845 76.6585 210.997 78.3135C207.149 79.9685 200.309 85.5018 199.96 85.7909C199.611 86.08 197.847 71.9626 209.302 69.3904C221.774 66.5789 224.955 76.7681 224.955 76.7681Z" fill="#F39237"/>
<path d="M200.618 85.2127C200.618 85.2127 208.185 75.2428 212.392 72.9497C216.6 70.6566 226.021 69.3805 231.854 71.9527C236.39 73.9467 225.303 79.789 225.303 79.789C225.198 79.3107 224.983 78.8633 224.675 78.4826C224.367 78.1019 223.975 77.7982 223.529 77.5957C220.697 76.4691 215.314 77.3365 212.243 78.3634C208.375 79.6694 200.618 85.2127 200.618 85.2127Z" fill="#F39237"/>
<path opacity="0.2" d="M200.618 85.2624C200.618 85.2624 208.185 75.2327 212.392 72.9496C216.6 70.6665 226.021 69.3804 231.854 71.9526C236.39 73.9466 225.303 79.789 225.303 79.789C225.198 79.3106 224.983 78.8633 224.675 78.4825C224.367 78.1018 223.975 77.7981 223.529 77.5956C220.697 76.469 215.314 77.3364 212.243 78.3633C208.375 79.6693 200.618 85.2624 200.618 85.2624Z" fill="black"/>
<path d="M187.398 131.224C186.76 150.884 194.018 187.703 199.362 190.206C216.609 198.261 245.632 198.77 255.572 198.859C259.859 198.859 266.439 168.372 262.192 166.657C259.37 165.52 216.819 165.51 216.071 163.995C215.323 162.479 205.184 140.585 200.807 128.462C194.995 112.341 187.767 119.679 187.398 131.224Z" fill="#B16668"/>
<path d="M257.626 166.248C257.626 166.248 270.657 167.046 279.141 167.963C283.887 168.471 291.933 170.076 295.233 172.04C300.218 175.031 319.001 190.465 315.352 195.111C312.042 199.308 297.566 183.965 297.566 183.965C297.566 183.965 313.518 198.152 308.632 202.489C303.747 206.825 289.69 187.294 289.69 187.294C289.69 187.294 305.781 202.249 300.008 205.918C295.652 208.68 281.923 191.721 281.923 191.721C281.923 191.721 295.672 204.682 291.305 207.673C286.479 211.033 272.831 196.168 272.831 196.168C260.438 202.03 252.143 199.747 246.43 197.424C245.024 196.905 257.626 166.248 257.626 166.248Z" fill="#B16668"/>
<path d="M292.351 178.7C294.285 180.296 296.259 181.901 298.044 183.685C299.829 185.47 301.563 187.284 303.179 189.209C305.34 191.684 307.213 194.396 308.762 197.294C305.641 192.309 299.34 185.929 297.546 184.164C295.751 182.399 294.066 180.545 292.281 178.78C292.232 178.72 292.301 178.661 292.351 178.7Z" fill="#263238"/>
<path d="M285.86 185.041C288.243 187.185 290.686 189.239 292.979 191.492C295.272 193.745 297.226 196.068 299.35 198.471C299.509 198.65 299.35 198.68 299.18 198.471C296.967 196.168 294.744 194.204 292.51 191.92C290.277 189.637 288.114 187.265 285.801 185.071C285.761 185.061 285.821 185.011 285.86 185.041Z" fill="#263238"/>
<path d="M279.271 189.478C283.01 192.685 286.408 196.27 289.41 200.176C289.56 200.365 289.361 200.385 289.191 200.176C285.891 196.556 283.329 193.695 279.161 189.597C279.131 189.548 279.271 189.418 279.271 189.478Z" fill="#263238"/>
<path d="M293.588 170.465C290.49 169.142 287.202 168.318 283.847 168.023C276.609 167.135 269.331 166.557 262.053 166.029C254.775 165.5 247.387 165.032 240.049 164.762C235.922 164.603 231.794 164.48 227.667 164.394C223.539 164.314 222.682 164.463 218.534 164.513C218.425 164.513 218.434 164.663 218.534 164.673C225.762 165.052 229.75 165.351 236.978 165.73C244.207 166.108 251.415 166.537 258.623 167.036C265.831 167.534 272.92 168.033 280.038 168.83C283.482 169.064 286.896 169.615 290.238 170.475C293.512 171.678 296.549 173.446 299.211 175.699C302.261 178.102 313.697 189.099 314.744 190.525C314.873 190.694 314.923 190.644 314.853 190.425C314.026 187.444 300.277 173.586 293.588 170.465Z" fill="#263238"/>
<path d="M207.986 143.915L186.78 155.939C186.78 155.939 185.883 129.14 187.847 121.184C190.06 112.211 194.148 115.322 198.754 122.779C203.36 130.237 207.986 143.915 207.986 143.915Z" fill="#F39237"/>
<path opacity="0.1" d="M207.986 143.915L186.78 155.939C186.78 155.939 185.883 129.14 187.847 121.184C190.06 112.211 194.148 115.322 198.754 122.779C203.36 130.237 207.986 143.915 207.986 143.915Z" fill="black"/>
<path d="M205.064 140.486C202.163 141.652 193.928 146.378 192.562 147.146C191.844 147.544 189.033 149.289 188.315 149.688C188.225 149.738 188.315 149.867 188.405 149.818C189.79 149.06 191.246 148.442 192.642 147.694C194.038 146.946 202.612 142.44 205.124 140.585C205.134 140.576 205.14 140.564 205.142 140.55C205.143 140.537 205.14 140.524 205.133 140.512C205.127 140.501 205.116 140.492 205.103 140.487C205.091 140.482 205.077 140.482 205.064 140.486Z" fill="#263238"/>
<path d="M204.646 133.995C204.317 132.749 203.978 131.513 203.599 130.277C203.808 131.194 204.047 132.111 204.287 133.028C203.519 131.294 202.731 129.579 201.874 127.914H201.824C202.751 130.616 203.818 133.268 204.815 135.949C205.812 138.631 206.809 141.194 207.806 143.816C207.358 144.165 206.919 144.504 206.46 144.813C206.442 144.825 206.429 144.843 206.424 144.865C206.419 144.886 206.423 144.909 206.435 144.927C206.447 144.946 206.466 144.959 206.487 144.964C206.509 144.968 206.531 144.964 206.55 144.952C207.098 144.673 207.647 144.394 208.215 144.145C208.281 144.12 208.335 144.071 208.366 144.008C208.397 143.946 208.404 143.873 208.384 143.806C207.268 140.546 206.032 137.236 204.646 133.995Z" fill="#263238"/>
<g opacity="0.5">
<path opacity="0.5" d="M414.576 122.131C414.576 123.057 414.301 123.961 413.787 124.73C413.273 125.499 412.542 126.099 411.687 126.452C410.832 126.806 409.891 126.898 408.984 126.717C408.077 126.535 407.244 126.089 406.59 125.434C405.937 124.779 405.492 123.945 405.313 123.037C405.133 122.13 405.227 121.189 405.583 120.335C405.938 119.481 406.539 118.751 407.309 118.239C408.08 117.726 408.985 117.453 409.91 117.455C410.524 117.455 411.131 117.576 411.698 117.812C412.265 118.047 412.779 118.391 413.213 118.826C413.646 119.26 413.99 119.775 414.224 120.343C414.457 120.91 414.577 121.518 414.576 122.131Z" fill="#F39237"/>
<path opacity="0.5" d="M409.91 130.057C408.329 130.067 406.78 129.607 405.461 128.734C404.141 127.861 403.111 126.616 402.501 125.157C401.892 123.697 401.729 122.09 402.036 120.538C402.342 118.986 403.102 117.56 404.221 116.442C405.339 115.323 406.765 114.563 408.317 114.256C409.869 113.95 411.476 114.112 412.936 114.722C414.395 115.332 415.64 116.362 416.513 117.681C417.386 119.001 417.846 120.55 417.836 122.131C417.823 124.229 416.984 126.238 415.501 127.721C414.017 129.205 412.008 130.044 409.91 130.057ZM409.91 115.202C408.542 115.202 407.204 115.607 406.066 116.367C404.928 117.126 404.04 118.205 403.514 119.468C402.988 120.731 402.848 122.122 403.111 123.465C403.374 124.808 404.029 126.042 404.993 127.013C405.958 127.984 407.187 128.648 408.528 128.921C409.869 129.194 411.261 129.064 412.528 128.547C413.795 128.03 414.88 127.15 415.648 126.017C416.415 124.884 416.83 123.549 416.839 122.181C416.846 121.267 416.672 120.361 416.326 119.514C415.981 118.668 415.472 117.898 414.828 117.249C414.184 116.601 413.418 116.086 412.574 115.734C411.73 115.383 410.825 115.202 409.91 115.202Z" fill="#F39237"/>
<path opacity="0.5" d="M128.659 77.4163C128.661 78.3415 128.389 79.2465 127.876 80.0168C127.364 80.787 126.634 81.3879 125.78 81.7433C124.926 82.0988 123.985 82.1928 123.077 82.0135C122.17 81.8342 121.336 81.3897 120.681 80.7361C120.026 80.0826 119.579 79.2494 119.398 78.3421C119.217 77.4348 119.309 76.4942 119.663 75.6392C120.016 74.7842 120.616 74.0533 121.385 73.5391C122.154 73.0249 123.058 72.7504 123.983 72.7504C125.222 72.7504 126.41 73.2416 127.286 74.1164C128.163 74.9911 128.657 76.1779 128.659 77.4163Z" fill="#F39237"/>
<path opacity="0.5" d="M123.984 85.3523C122.404 85.3622 120.857 84.9028 119.539 84.0324C118.221 83.1621 117.191 81.9199 116.579 80.4634C115.968 79.0068 115.803 77.4016 116.105 75.8512C116.407 74.3007 117.163 72.8749 118.276 71.7544C119.39 70.634 120.811 69.8694 122.359 69.5576C123.908 69.2458 125.514 69.4008 126.974 70.003C128.435 70.6051 129.683 71.6274 130.562 72.9401C131.441 74.2528 131.91 75.7968 131.91 77.3764C131.91 79.4831 131.076 81.5043 129.591 82.9987C128.106 84.493 126.09 85.3392 123.984 85.3523ZM123.984 70.4872C122.599 70.4773 121.243 70.8795 120.088 71.6426C118.932 72.4056 118.03 73.4951 117.496 74.7723C116.961 76.0496 116.819 77.4569 117.087 78.8153C117.354 80.1737 118.02 81.4218 118.999 82.4008C119.978 83.3798 121.226 84.0455 122.585 84.3132C123.943 84.5809 125.35 84.4385 126.628 83.9041C127.905 83.3697 128.994 82.4675 129.757 81.3122C130.52 80.1569 130.922 78.8008 130.913 77.4163C130.9 75.5826 130.165 73.8277 128.869 72.5311C127.572 71.2345 125.817 70.5003 123.984 70.4872Z" fill="#F39237"/>
<path opacity="0.5" d="M300.401 146.817H239.984V53.4187H160.254V77.9148H131.411V76.9178H159.257V52.4218H240.98V145.82H299.404V119.948H367.788V94.754H410.409V114.704H409.412V95.7509H368.785V120.945H300.401V146.817Z" fill="#F39237"/>
</g>
<path d="M140.584 28.8229C139.756 20.528 134.034 12.2629 123.984 12.2629C113.934 12.2629 108.222 20.5679 107.394 28.8229C106.128 41.6343 114.762 53.2392 123.984 63.8273C133.206 53.2791 141.85 41.6741 140.584 28.8229ZM123.984 38.0351C122.185 38.0351 120.427 37.5016 118.932 36.5021C117.436 35.5025 116.271 34.0819 115.583 32.4198C114.895 30.7578 114.715 28.9291 115.067 27.165C115.419 25.401 116.286 23.7809 117.558 22.5097C118.831 21.2384 120.452 20.3732 122.216 20.0235C123.981 19.6738 125.809 19.8553 127.471 20.545C129.132 21.2347 130.551 22.4017 131.549 23.8983C132.547 25.3949 133.079 27.1538 133.077 28.9525C133.082 30.1495 132.851 31.3356 132.396 32.4429C131.941 33.5501 131.272 34.5565 130.427 35.4042C129.582 36.252 128.578 36.9244 127.472 37.3827C126.366 37.8411 125.181 38.0763 123.984 38.075V38.0351Z" fill="#F39237"/>
<path d="M31.9037 423.048C31.9037 431.858 24.7618 439 15.9518 439C7.14188 439 0 431.858 0 423.048C0 414.238 7.14188 407.096 15.9518 407.096C24.7618 407.096 31.9037 414.238 31.9037 423.048ZM2.18487 423.048C2.18487 430.651 8.34855 436.815 15.9518 436.815C23.5551 436.815 29.7188 430.651 29.7188 423.048C29.7188 415.445 23.5551 409.281 15.9518 409.281C8.34855 409.281 2.18487 415.445 2.18487 423.048Z" fill="#F39237"/>
<path d="M542.57 151.951C542.57 164.34 532.526 174.384 520.137 174.384C507.748 174.384 497.705 164.34 497.705 151.951C497.705 139.562 507.748 129.519 520.137 129.519C532.526 129.519 542.57 139.562 542.57 151.951ZM500.777 151.951C500.777 162.643 509.445 171.311 520.137 171.311C530.829 171.311 539.497 162.643 539.497 151.951C539.497 141.259 530.829 132.592 520.137 132.592C509.445 132.592 500.777 141.259 500.777 151.951Z" fill="white"/>
</svg>

