<svg width="592" height="592" viewBox="0 0 592 592" fill="none" xmlns="http://www.w3.org/2000/svg">
<g clip-path="url(#clip0)">
<path d="M152.36 519.926C259.966 556.161 421.067 530.73 512.256 463.115C603.445 395.5 590.183 311.338 482.577 275.103C374.971 238.869 213.872 264.311 122.681 331.914C31.4905 399.518 44.7906 483.698 152.36 519.926Z" fill="#455A64" fill-opacity="0.08"/>
<path d="M84.4429 378.88H88.6816C90.6243 372.393 91.8979 365.724 92.4822 358.977C93.4057 346.486 87.3555 327.364 76.2732 320.959C65.191 314.553 59.1881 322.474 62.9059 329.247C66.6237 336.019 79.1622 355.283 79.328 371.859L84.4429 378.88Z" fill="#F39237"/>
<path d="M83.4246 378.88H84.6086C85.7654 370.7 85.7654 362.397 84.6086 354.217C82.6905 338.008 77.3625 330.478 72.4134 325.245C72.3051 325.13 72.1557 325.063 71.998 325.059C71.8404 325.054 71.6874 325.113 71.5728 325.221C71.4582 325.329 71.3913 325.479 71.3868 325.637C71.3824 325.794 71.4408 325.947 71.5491 326.062C76.368 331.141 81.5539 338.482 83.3891 354.348C84.562 362.482 84.574 370.742 83.4246 378.88Z" fill="white"/>
<path d="M84.7862 378.88C82.6076 368.603 72.7094 356.384 63.3676 354.277C52.534 351.909 47.2652 357.627 48.8162 362.564C50.3673 367.502 58.9276 369.799 67.2393 373.67C70.038 374.966 72.5963 376.728 74.805 378.88H84.7862Z" fill="#F39237"/>
<path d="M80.8435 378.88H82.1104C77.5284 367.36 67.1092 359.143 58.5844 358.385C58.5072 358.377 58.4292 358.384 58.3549 358.407C58.2807 358.429 58.2117 358.467 58.1521 358.516C58.0924 358.566 58.0434 358.627 58.0078 358.696C57.9723 358.765 57.9509 358.84 57.945 358.918C57.9351 358.995 57.9413 359.074 57.9632 359.149C57.9851 359.224 58.0222 359.293 58.0722 359.353C58.1221 359.413 58.184 359.462 58.2538 359.498C58.3236 359.533 58.3998 359.553 58.4778 359.557C66.529 360.279 76.368 367.999 80.8435 378.88Z" fill="white"/>
<path d="M466.993 270.556L475.861 275.209L476.607 269.656C472.215 257.271 475.826 243.229 480.574 237.38C485.322 231.531 484.41 227.233 482.693 225.315C480.976 223.397 474.464 221.941 468.023 229.471C461.582 237.001 460.102 246.142 461.18 255.365C461.867 261.131 464.898 267.051 466.993 270.556Z" fill="#F39237"/>
<path opacity="0.2" d="M466.993 270.556L475.861 275.209L476.607 269.656C472.215 257.271 475.826 243.229 480.574 237.38C485.322 231.531 484.41 227.233 482.693 225.315C480.976 223.397 474.464 221.941 468.023 229.471C461.582 237.001 460.102 246.142 461.18 255.365C461.867 261.131 464.898 267.051 466.993 270.556Z" fill="black"/>
<path d="M470.652 272.474L472.404 273.397C472.387 273.364 472.367 273.333 472.345 273.303C469.835 270.319 466.591 255.708 467.952 247.148C469.634 236.575 475.056 229.672 479.697 226.748C479.754 226.713 479.804 226.667 479.842 226.612C479.881 226.558 479.908 226.496 479.923 226.431C479.937 226.366 479.938 226.299 479.926 226.233C479.914 226.167 479.888 226.105 479.851 226.049C479.776 225.936 479.66 225.857 479.527 225.828C479.395 225.799 479.256 225.823 479.141 225.895C474.405 228.938 468.674 236.078 466.934 246.994C465.679 254.963 468.189 267.584 470.652 272.474Z" fill="white"/>
<path d="M476.039 249.421C478.632 255.78 478.62 258.893 474.393 259.545C470.581 260.113 465.951 264.742 470.249 272.261L495.397 285.451C495.461 284.045 495.808 282.667 496.418 281.399C497.029 280.131 497.89 279 498.949 278.074C503.082 273.942 506.894 270.828 506.302 266.234C505.71 261.64 501.72 257.212 501.057 253.21C500.394 249.208 502.43 246.923 506.776 242.436C511.121 237.948 515.064 230.987 509.262 227.813C503.46 224.64 496.818 230.075 494.048 233.733C491.277 237.392 488.743 239.002 483.285 238.694C477.827 238.387 473.446 243.063 476.039 249.421Z" fill="#F39237"/>
<path d="M483.155 279.033C483.036 259.521 497.019 236.67 504.798 232.052C504.913 231.979 504.995 231.864 505.029 231.732C505.062 231.6 505.043 231.46 504.976 231.342C504.905 231.228 504.793 231.146 504.662 231.113C504.532 231.08 504.394 231.098 504.277 231.164C496.392 235.9 482.291 258.763 482.137 278.524L483.155 279.033Z" fill="white"/>
<path d="M486.896 258.751C486.789 258.776 486.677 258.763 486.579 258.716C486.48 258.669 486.4 258.589 486.352 258.491C484.093 254.277 482.192 249.881 480.668 245.348C480.648 245.285 480.641 245.218 480.647 245.151C480.652 245.084 480.671 245.02 480.702 244.96C480.733 244.901 480.775 244.848 480.826 244.805C480.877 244.762 480.936 244.729 481 244.709C481.064 244.689 481.131 244.681 481.198 244.687C481.264 244.693 481.329 244.712 481.388 244.742C481.448 244.773 481.5 244.815 481.544 244.867C481.587 244.918 481.619 244.977 481.639 245.041C483.149 249.51 485.026 253.846 487.252 258.005C487.315 258.127 487.328 258.268 487.288 258.398C487.248 258.529 487.158 258.639 487.038 258.704L486.896 258.751Z" fill="white"/>
<path d="M483.534 270.71C483.437 270.728 483.337 270.718 483.245 270.683C483.153 270.647 483.072 270.587 483.013 270.508C482.935 270.395 482.905 270.256 482.929 270.121C482.953 269.985 483.03 269.865 483.143 269.786C488.242 266.217 494.427 264.541 500.631 265.05C500.766 265.068 500.888 265.138 500.972 265.245C501.055 265.353 501.092 265.489 501.075 265.624C501.057 265.76 500.987 265.882 500.879 265.965C500.772 266.049 500.635 266.086 500.5 266.068C494.561 265.616 488.646 267.208 483.735 270.58C483.677 270.636 483.609 270.68 483.534 270.71Z" fill="white"/>
<path d="M334.942 151.516L306.088 134.858L277.245 151.516L306.088 168.175L334.942 151.516Z" fill="#F5F5F5"/>
<path d="M306.088 201.505L334.942 184.846V151.516L306.088 168.175V201.505Z" fill="#EBEBEB"/>
<path d="M311.653 190.446C311.5 190.449 311.349 190.412 311.214 190.34C311.03 190.205 310.884 190.026 310.788 189.819C310.693 189.611 310.652 189.383 310.67 189.156V185.604V185.343H310.847L313.618 183.721V187.664C313.614 188.172 313.488 188.671 313.251 189.12C313.015 189.57 312.673 189.955 312.256 190.245C312.077 190.366 311.868 190.436 311.653 190.446ZM311.12 185.864V189.132C311.1 189.284 311.119 189.439 311.175 189.582C311.231 189.724 311.322 189.851 311.439 189.949C311.535 189.992 311.641 190.008 311.745 189.995C311.849 189.983 311.948 189.942 312.031 189.878C312.386 189.631 312.678 189.304 312.883 188.923C313.089 188.543 313.203 188.12 313.215 187.688V187.404H312.185L311.984 186.018L311.12 185.864ZM312.541 186.954H313.18V184.526L311.522 185.485L312.339 185.639L312.541 186.954Z" fill="white"/>
<path d="M312.15 193.264C312.09 193.264 312.033 193.241 311.991 193.198C311.948 193.156 311.925 193.099 311.925 193.039V190.079C311.923 190.049 311.928 190.019 311.938 189.991C311.949 189.963 311.966 189.938 311.987 189.916C312.008 189.895 312.034 189.879 312.062 189.868C312.09 189.857 312.12 189.853 312.15 189.854C312.209 189.854 312.267 189.878 312.309 189.92C312.351 189.962 312.375 190.02 312.375 190.079V192.992C312.38 193.025 312.378 193.059 312.369 193.091C312.36 193.123 312.344 193.153 312.323 193.179C312.302 193.204 312.275 193.225 312.246 193.24C312.216 193.255 312.183 193.263 312.15 193.264Z" fill="white"/>
<path d="M310.859 194.01C310.82 194.01 310.781 193.999 310.748 193.978C310.714 193.957 310.687 193.927 310.67 193.892C310.653 193.868 310.642 193.84 310.638 193.811C310.633 193.782 310.635 193.753 310.643 193.725C310.65 193.696 310.664 193.67 310.683 193.648C310.702 193.626 310.726 193.608 310.753 193.596L313.322 192.104C313.348 192.089 313.376 192.08 313.405 192.076C313.435 192.072 313.464 192.074 313.493 192.082C313.522 192.089 313.549 192.102 313.572 192.121C313.595 192.139 313.615 192.161 313.63 192.187C313.657 192.239 313.663 192.3 313.648 192.357C313.633 192.414 313.597 192.463 313.547 192.495L310.966 193.975L310.859 194.01Z" fill="white"/>
<path d="M320.047 188.895C319.966 188.92 319.879 188.92 319.798 188.895C319.712 188.837 319.642 188.757 319.597 188.664C319.551 188.57 319.531 188.466 319.538 188.363V187.759C319.536 187.73 319.541 187.701 319.551 187.674C319.561 187.646 319.576 187.621 319.596 187.6C319.616 187.579 319.64 187.562 319.667 187.551C319.693 187.54 319.722 187.534 319.751 187.534C319.781 187.532 319.811 187.537 319.839 187.547C319.867 187.558 319.893 187.575 319.914 187.596C319.935 187.617 319.952 187.643 319.962 187.671C319.973 187.699 319.978 187.729 319.976 187.759V188.256C319.976 188.351 319.976 188.398 319.976 188.398C319.976 188.398 320.047 188.398 320.118 188.398C320.256 188.273 320.365 188.119 320.436 187.947C320.508 187.775 320.541 187.59 320.533 187.404V183.52C320.532 183.491 320.538 183.462 320.55 183.436C320.561 183.409 320.578 183.385 320.599 183.365C320.62 183.345 320.645 183.33 320.672 183.32C320.7 183.31 320.729 183.305 320.757 183.307C320.814 183.307 320.868 183.329 320.908 183.369C320.948 183.409 320.971 183.463 320.971 183.52V187.475C320.979 187.738 320.927 188 320.819 188.24C320.71 188.481 320.547 188.693 320.343 188.86C320.248 188.89 320.147 188.902 320.047 188.895Z" fill="white"/>
<path d="M317.703 185.45V185.071C317.758 184.085 318.044 183.126 318.537 182.27C319.031 181.415 319.718 180.687 320.544 180.146C320.84 179.897 321.205 179.745 321.59 179.711C321.974 179.677 322.36 179.762 322.695 179.954C323.03 180.147 323.297 180.438 323.461 180.788C323.625 181.137 323.677 181.529 323.611 181.91V182.04L317.703 185.45ZM321.87 180.193C321.479 180.205 321.098 180.324 320.769 180.536C320.066 181 319.47 181.609 319.021 182.321C318.572 183.034 318.28 183.834 318.165 184.668L323.161 181.791C323.18 181.512 323.127 181.232 323.007 180.979C322.886 180.726 322.703 180.509 322.474 180.347C322.29 180.243 322.082 180.189 321.87 180.193Z" fill="white"/>
<path d="M327.968 184.349C327.91 184.349 327.855 184.327 327.813 184.287C327.771 184.248 327.746 184.193 327.743 184.136V176.582C327.743 176.522 327.767 176.465 327.809 176.423C327.851 176.381 327.908 176.357 327.968 176.357C328.028 176.357 328.085 176.381 328.127 176.423C328.169 176.465 328.193 176.522 328.193 176.582V184.136C328.19 184.193 328.165 184.248 328.123 184.287C328.081 184.327 328.026 184.349 327.968 184.349Z" fill="white"/>
<path d="M327.364 178.299H327.281C327.254 178.287 327.229 178.27 327.209 178.249C327.188 178.228 327.172 178.203 327.161 178.175C327.15 178.148 327.144 178.118 327.145 178.089C327.145 178.059 327.151 178.03 327.163 178.003L327.956 176.179L328.832 177.197C328.851 177.219 328.865 177.244 328.874 177.272C328.883 177.299 328.886 177.328 328.884 177.356C328.882 177.385 328.874 177.413 328.861 177.438C328.848 177.464 328.83 177.487 328.809 177.505C328.787 177.524 328.762 177.538 328.734 177.547C328.707 177.556 328.678 177.559 328.65 177.557C328.621 177.555 328.593 177.547 328.568 177.534C328.542 177.521 328.519 177.503 328.501 177.482L328.075 177.008L327.565 178.192C327.545 178.227 327.516 178.256 327.48 178.274C327.445 178.293 327.404 178.302 327.364 178.299Z" fill="white"/>
<path d="M330.064 183.188C330.006 183.185 329.952 183.16 329.912 183.119C329.873 183.077 329.851 183.021 329.851 182.964V175.41C329.843 175.377 329.843 175.342 329.85 175.309C329.858 175.276 329.872 175.245 329.893 175.219C329.914 175.192 329.941 175.171 329.972 175.156C330.002 175.141 330.036 175.133 330.07 175.133C330.104 175.133 330.137 175.141 330.168 175.156C330.198 175.171 330.225 175.192 330.246 175.219C330.267 175.245 330.282 175.276 330.289 175.309C330.297 175.342 330.296 175.377 330.289 175.41V182.964C330.289 183.023 330.265 183.08 330.223 183.123C330.181 183.165 330.123 183.188 330.064 183.188Z" fill="white"/>
<path d="M329.413 177.126H329.33C329.302 177.115 329.278 177.098 329.257 177.077C329.236 177.056 329.22 177.031 329.209 177.003C329.198 176.976 329.192 176.946 329.193 176.916C329.193 176.887 329.2 176.858 329.211 176.83L330.005 175.007L330.881 176.025C330.92 176.067 330.942 176.122 330.942 176.179C330.942 176.236 330.92 176.291 330.881 176.333C330.837 176.373 330.78 176.395 330.721 176.395C330.662 176.395 330.605 176.373 330.561 176.333L330.147 175.848L329.638 177.032C329.613 177.067 329.579 177.095 329.539 177.112C329.499 177.129 329.455 177.134 329.413 177.126Z" fill="white"/>
<path d="M306.088 201.505L277.234 184.846L277.246 151.516L306.088 168.175V201.505Z" fill="#E0E0E0"/>
<path d="M293.23 160.752L322.06 144.081L318.804 142.198L289.962 158.869L293.23 160.752Z" fill="white"/>
<path d="M281.614 170.626L291.951 176.546C292.545 176.938 293.04 177.463 293.396 178.08C293.751 178.696 293.958 179.388 293.999 180.098V186.468C293.999 187.782 293.076 188.315 291.951 187.652L281.614 181.732C281.019 181.341 280.524 180.816 280.168 180.199C279.813 179.583 279.606 178.891 279.566 178.18V171.81C279.566 170.496 280.49 169.975 281.614 170.626Z" fill="#F39237"/>
<path d="M280.821 172.213L281.212 172.45V179.518L280.821 179.293V172.213Z" fill="#F39237"/>
<path d="M282.42 173.136L283.095 173.539V180.607L282.42 180.217V173.136Z" fill="#F39237"/>
<path d="M284.018 174.06L284.409 174.285V181.365L284.018 181.14V174.06Z" fill="#F39237"/>
<path d="M285.214 174.747L286.007 175.208V182.289L285.214 181.815V174.747Z" fill="#F39237"/>
<path d="M287.203 175.907L287.606 176.132V183.212L287.203 182.975V175.907Z" fill="#F39237"/>
<path d="M288.363 176.558L289.192 177.055V184.124L288.351 183.627L288.363 176.558Z" fill="#F39237"/>
<path d="M290.4 177.754L290.79 177.979V185.047L290.4 184.822V177.754Z" fill="#F39237"/>
<path d="M291.311 178.263L291.513 178.381V185.45L291.311 185.343V178.263Z" fill="#F39237"/>
<path d="M289.677 177.363L289.867 177.482V184.55L289.677 184.444V177.363Z" fill="#F39237"/>
<path d="M286.457 175.481L286.646 175.587V182.668L286.457 182.549V175.481Z" fill="#F39237"/>
<path d="M284.693 174.462L284.894 174.581V181.661L284.693 181.543V174.462Z" fill="#F39237"/>
<path d="M283.426 173.764L283.627 173.882V180.963L283.426 180.844V173.764Z" fill="#F39237"/>
<path d="M281.709 172.722L281.91 172.84V179.921L281.709 179.802V172.722Z" fill="#F39237"/>
<path d="M291.998 178.666L292.389 178.891V185.971L291.998 185.746V178.666Z" fill="#F39237"/>
<path d="M296.474 145.964L262.801 126.534L229.14 145.964L262.801 165.405L296.474 145.964Z" fill="#F5F5F5"/>
<path d="M248.368 157.069L282.041 137.64L278.773 135.757L245.112 155.187L248.368 157.069Z" fill="white"/>
<path d="M262.801 226.487L296.474 207.058V145.964L262.801 165.405V226.487Z" fill="#EBEBEB"/>
<path d="M268.365 215.488C268.211 215.491 268.059 215.45 267.927 215.37C267.741 215.237 267.592 215.058 267.496 214.851C267.401 214.643 267.361 214.413 267.383 214.186V210.634V210.373H267.572L270.331 208.751V212.694C270.325 213.201 270.199 213.7 269.962 214.149C269.725 214.598 269.385 214.984 268.969 215.275C268.791 215.4 268.582 215.474 268.365 215.488ZM267.833 210.906V214.174C267.813 214.326 267.832 214.48 267.888 214.623C267.944 214.766 268.035 214.892 268.152 214.991C268.248 215.034 268.354 215.05 268.458 215.037C268.562 215.025 268.661 214.984 268.744 214.92C269.099 214.672 269.391 214.345 269.596 213.965C269.802 213.585 269.916 213.161 269.928 212.729V212.445H268.898L268.697 211.06L267.833 210.906ZM269.253 211.995H269.952V209.568L268.294 210.539L269.111 210.681L269.253 211.995Z" fill="white"/>
<path d="M268.863 218.259C268.803 218.259 268.746 218.235 268.704 218.193C268.661 218.15 268.638 218.093 268.638 218.034V215.062C268.638 215.033 268.644 215.004 268.655 214.977C268.666 214.951 268.683 214.927 268.704 214.907C268.725 214.887 268.75 214.871 268.777 214.861C268.805 214.851 268.834 214.847 268.863 214.849C268.92 214.849 268.976 214.871 269.018 214.91C269.06 214.95 269.085 215.004 269.088 215.062V218.034C269.085 218.092 269.06 218.148 269.019 218.19C268.977 218.231 268.921 218.256 268.863 218.259Z" fill="white"/>
<path d="M267.584 219.04C267.546 219.041 267.508 219.031 267.475 219.013C267.441 218.994 267.414 218.967 267.395 218.933C267.368 218.881 267.361 218.82 267.376 218.763C267.392 218.707 267.428 218.657 267.477 218.626L270.047 217.146C270.072 217.131 270.101 217.121 270.13 217.117C270.159 217.113 270.189 217.115 270.218 217.123C270.246 217.131 270.273 217.144 270.297 217.162C270.32 217.18 270.34 217.203 270.355 217.228C270.369 217.253 270.379 217.281 270.382 217.309C270.386 217.338 270.384 217.366 270.376 217.394C270.368 217.422 270.355 217.448 270.337 217.47C270.319 217.492 270.297 217.511 270.272 217.524L267.691 219.016C267.658 219.035 267.621 219.043 267.584 219.04Z" fill="white"/>
<path d="M276.76 213.89C276.674 213.89 276.588 213.87 276.511 213.83C276.425 213.772 276.355 213.693 276.31 213.599C276.264 213.505 276.244 213.401 276.251 213.298V212.682C276.251 212.653 276.257 212.624 276.268 212.598C276.28 212.571 276.296 212.547 276.317 212.527C276.338 212.507 276.363 212.491 276.391 212.481C276.418 212.472 276.447 212.467 276.476 212.469C276.504 212.469 276.531 212.474 276.557 212.485C276.583 212.496 276.607 212.511 276.626 212.531C276.646 212.551 276.662 212.574 276.673 212.6C276.683 212.626 276.689 212.654 276.689 212.682V213.298C276.689 213.38 276.689 213.428 276.689 213.44C276.689 213.452 276.76 213.44 276.831 213.44C276.969 213.312 277.078 213.156 277.149 212.982C277.221 212.808 277.254 212.621 277.245 212.433V208.491C277.245 208.431 277.269 208.374 277.311 208.331C277.353 208.289 277.411 208.266 277.47 208.266C277.529 208.268 277.585 208.293 277.626 208.335C277.668 208.376 277.692 208.432 277.695 208.491V212.433C277.706 212.698 277.654 212.962 277.543 213.203C277.432 213.444 277.265 213.655 277.056 213.819C276.964 213.864 276.863 213.889 276.76 213.89Z" fill="white"/>
<path d="M274.416 210.444V210.053C274.472 209.069 274.758 208.112 275.252 207.258C275.745 206.405 276.432 205.679 277.257 205.14C277.553 204.891 277.918 204.739 278.302 204.705C278.687 204.671 279.073 204.756 279.408 204.949C279.743 205.141 280.01 205.432 280.174 205.782C280.338 206.132 280.39 206.523 280.324 206.904V207.034L274.416 210.444ZM278.583 205.175C278.193 205.193 277.814 205.312 277.482 205.519C276.778 205.984 276.181 206.594 275.731 207.309C275.282 208.024 274.991 208.826 274.877 209.663L279.874 206.786C279.891 206.505 279.838 206.224 279.718 205.969C279.598 205.715 279.415 205.494 279.187 205.329C279.002 205.229 278.794 205.176 278.583 205.175Z" fill="white"/>
<path d="M284.728 209.343C284.669 209.343 284.612 209.319 284.569 209.277C284.527 209.235 284.503 209.178 284.503 209.118V201.564C284.503 201.505 284.527 201.447 284.569 201.405C284.612 201.363 284.669 201.339 284.728 201.339C284.788 201.339 284.845 201.363 284.887 201.405C284.93 201.447 284.953 201.505 284.953 201.564V209.118C284.953 209.178 284.93 209.235 284.887 209.277C284.845 209.319 284.788 209.343 284.728 209.343Z" fill="white"/>
<path d="M284.077 203.293H283.994C283.967 203.282 283.943 203.267 283.922 203.247C283.902 203.227 283.885 203.203 283.874 203.176C283.863 203.149 283.858 203.121 283.858 203.092C283.858 203.063 283.864 203.035 283.876 203.009L284.669 201.185L285.545 202.204C285.583 202.247 285.602 202.305 285.597 202.362C285.593 202.42 285.566 202.474 285.522 202.511C285.478 202.549 285.421 202.568 285.363 202.563C285.305 202.559 285.251 202.532 285.214 202.488L284.788 202.002L284.278 203.186C284.258 203.221 284.229 203.25 284.193 203.269C284.158 203.288 284.117 203.296 284.077 203.293Z" fill="white"/>
<path d="M286.777 208.171C286.72 208.171 286.666 208.148 286.626 208.108C286.586 208.068 286.563 208.014 286.563 207.958V200.404C286.562 200.375 286.566 200.346 286.576 200.319C286.586 200.291 286.602 200.267 286.622 200.245C286.641 200.224 286.666 200.208 286.692 200.196C286.719 200.185 286.748 200.179 286.777 200.179C286.807 200.177 286.837 200.182 286.865 200.193C286.893 200.203 286.918 200.22 286.939 200.241C286.961 200.262 286.977 200.288 286.988 200.316C286.999 200.344 287.003 200.374 287.002 200.404V207.958C287.002 207.987 286.996 208.016 286.984 208.042C286.973 208.069 286.956 208.093 286.935 208.113C286.914 208.133 286.889 208.148 286.862 208.158C286.835 208.168 286.806 208.173 286.777 208.171Z" fill="white"/>
<path d="M286.137 202.121H286.043C285.99 202.095 285.948 202.05 285.926 201.996C285.904 201.941 285.904 201.88 285.924 201.825L286.717 200.001L287.605 201.02C287.642 201.062 287.662 201.117 287.662 201.173C287.662 201.23 287.642 201.284 287.605 201.327C287.585 201.348 287.56 201.365 287.532 201.377C287.505 201.388 287.475 201.394 287.446 201.394C287.416 201.394 287.386 201.388 287.359 201.377C287.332 201.365 287.307 201.348 287.286 201.327L286.871 200.842L286.362 202.026C286.339 202.063 286.305 202.092 286.265 202.109C286.224 202.126 286.18 202.13 286.137 202.121Z" fill="white"/>
<path d="M262.801 226.487L229.14 207.058V145.964L262.801 165.405V226.487Z" fill="#E0E0E0"/>
<path d="M235.983 194.354L246.308 200.274C246.905 200.663 247.402 201.188 247.76 201.804C248.118 202.421 248.326 203.114 248.368 203.826V210.207C248.368 211.51 247.444 212.043 246.308 211.391L235.983 205.471C235.386 205.083 234.889 204.558 234.533 203.941C234.177 203.324 233.972 202.631 233.935 201.919V195.549C233.935 194.176 234.858 193.702 235.983 194.354Z" fill="#F5F5F5"/>
<path d="M235.19 195.94L235.58 196.177V203.245L235.19 203.02V195.94Z" fill="#E0E0E0"/>
<path d="M236.788 196.864L237.463 197.266V204.347L236.788 203.944V196.864Z" fill="#E0E0E0"/>
<path d="M238.375 197.787L238.777 198.012L238.765 205.092L238.375 204.868V197.787Z" fill="#E0E0E0"/>
<path d="M239.582 198.474L240.364 198.936V206.016L239.582 205.542V198.474Z" fill="#E0E0E0"/>
<path d="M241.572 199.634L241.962 199.859V206.94L241.572 206.703V199.634Z" fill="#E0E0E0"/>
<path d="M242.72 200.285L243.561 200.783V207.851L242.72 207.354V200.285Z" fill="#E0E0E0"/>
<path d="M244.768 201.469L245.159 201.706V208.775L244.768 208.55V201.469Z" fill="#E0E0E0"/>
<path d="M245.68 201.99L245.881 202.109V209.189L245.68 209.071V201.99Z" fill="#E0E0E0"/>
<path d="M244.046 201.091L244.236 201.209V208.277L244.046 208.171V201.091Z" fill="#E0E0E0"/>
<path d="M240.826 199.208L241.015 199.315V206.395L240.826 206.277V199.208Z" fill="#E0E0E0"/>
<path d="M239.062 198.19L239.251 198.308V205.388L239.062 205.27V198.19Z" fill="#E0E0E0"/>
<path d="M237.795 197.491L237.996 197.61V204.69L237.795 204.572V197.491Z" fill="#E0E0E0"/>
<path d="M236.078 196.449L236.279 196.568V203.648L236.078 203.53V196.449Z" fill="#E0E0E0"/>
<path d="M246.367 202.393L246.758 202.618V209.698L246.367 209.473V202.393Z" fill="#E0E0E0"/>
<path d="M245.112 163.072L248.368 164.955V157.069L245.112 155.187V163.072Z" fill="#F0F0F0"/>
<path d="M195.467 209.828L171.42 195.952L137.758 215.381L161.805 229.27L195.467 209.828Z" fill="#F5F5F5"/>
<path d="M161.806 284.799L195.467 265.37V209.828L161.806 229.27V284.799Z" fill="#EBEBEB"/>
<path d="M167.358 273.753C167.208 273.756 167.06 273.715 166.932 273.634C166.746 273.501 166.598 273.322 166.503 273.115C166.407 272.907 166.367 272.678 166.387 272.45V268.898V268.638H166.565L169.336 267.016V270.958C169.33 271.466 169.203 271.965 168.967 272.413C168.73 272.862 168.39 273.248 167.974 273.54C167.791 273.664 167.579 273.737 167.358 273.753ZM166.837 269.171V272.438C166.815 272.591 166.833 272.746 166.889 272.889C166.945 273.032 167.038 273.159 167.157 273.255C167.254 273.294 167.359 273.307 167.462 273.295C167.565 273.282 167.664 273.244 167.749 273.184C168.104 272.937 168.395 272.61 168.601 272.23C168.807 271.849 168.92 271.426 168.933 270.994V270.71H167.903L167.702 269.324L166.837 269.171ZM168.258 270.26H168.898V267.821L167.24 268.792L168.057 268.934L168.258 270.26Z" fill="white"/>
<path d="M167.868 276.571C167.808 276.571 167.751 276.547 167.708 276.505C167.666 276.462 167.643 276.405 167.643 276.346V273.374C167.643 273.345 167.648 273.316 167.66 273.289C167.671 273.263 167.688 273.239 167.709 273.219C167.73 273.199 167.755 273.183 167.782 273.173C167.81 273.163 167.839 273.159 167.868 273.161C167.924 273.161 167.978 273.183 168.018 273.223C168.058 273.263 168.081 273.317 168.081 273.374V276.346C168.081 276.403 168.059 276.459 168.019 276.501C167.979 276.542 167.925 276.568 167.868 276.571Z" fill="white"/>
<path d="M166.577 277.305C166.539 277.307 166.5 277.298 166.467 277.279C166.433 277.26 166.406 277.232 166.388 277.198C166.371 277.174 166.359 277.146 166.353 277.117C166.348 277.087 166.348 277.057 166.355 277.028C166.362 276.999 166.374 276.972 166.392 276.948C166.41 276.925 166.433 276.905 166.459 276.89L169.04 275.41C169.065 275.395 169.094 275.386 169.123 275.382C169.152 275.378 169.182 275.38 169.211 275.388C169.239 275.395 169.266 275.409 169.29 275.427C169.313 275.445 169.333 275.467 169.348 275.493C169.362 275.518 169.372 275.545 169.375 275.574C169.379 275.602 169.377 275.631 169.369 275.659C169.361 275.686 169.348 275.712 169.33 275.735C169.312 275.757 169.29 275.776 169.265 275.789L166.684 277.281C166.651 277.3 166.614 277.308 166.577 277.305Z" fill="white"/>
<path d="M175.765 272.202C175.678 272.202 175.593 272.182 175.516 272.142C175.43 272.084 175.36 272.005 175.314 271.911C175.269 271.817 175.248 271.713 175.256 271.61V270.994C175.256 270.937 175.278 270.883 175.318 270.843C175.358 270.803 175.412 270.781 175.469 270.781C175.498 270.779 175.527 270.784 175.554 270.793C175.581 270.803 175.606 270.819 175.627 270.839C175.648 270.859 175.665 270.883 175.677 270.91C175.688 270.936 175.694 270.965 175.694 270.994V271.61C175.694 271.692 175.694 271.74 175.694 271.752C175.694 271.764 175.765 271.752 175.836 271.752C175.972 271.622 176.079 271.466 176.15 271.293C176.221 271.119 176.256 270.933 176.25 270.745V266.803C176.243 266.77 176.242 266.735 176.25 266.702C176.257 266.669 176.272 266.638 176.293 266.611C176.314 266.585 176.341 266.563 176.371 266.549C176.402 266.534 176.435 266.526 176.469 266.526C176.503 266.526 176.537 266.534 176.567 266.549C176.598 266.563 176.625 266.585 176.646 266.611C176.667 266.638 176.681 266.669 176.689 266.702C176.696 266.735 176.696 266.77 176.688 266.803V270.745C176.698 271.009 176.646 271.271 176.538 271.512C176.429 271.752 176.266 271.964 176.061 272.131C175.969 272.176 175.868 272.201 175.765 272.202Z" fill="white"/>
<path d="M173.42 268.768V268.377C173.476 267.393 173.763 266.436 174.256 265.582C174.75 264.729 175.437 264.003 176.262 263.464C176.556 263.212 176.921 263.058 177.306 263.023C177.691 262.987 178.078 263.072 178.413 263.266C178.748 263.459 179.015 263.752 179.177 264.103C179.339 264.455 179.387 264.848 179.317 265.228V265.358L173.42 268.768ZM177.588 263.499C177.198 263.517 176.818 263.635 176.487 263.843C175.782 264.308 175.186 264.918 174.736 265.633C174.287 266.348 173.996 267.15 173.882 267.987L178.879 265.098C178.895 264.818 178.841 264.54 178.721 264.287C178.601 264.035 178.419 263.816 178.192 263.653C178.011 263.55 177.808 263.493 177.6 263.487L177.588 263.499Z" fill="white"/>
<path d="M183.733 267.655C183.674 267.655 183.616 267.631 183.574 267.589C183.532 267.547 183.508 267.49 183.508 267.43V259.876C183.508 259.816 183.532 259.759 183.574 259.717C183.616 259.675 183.674 259.651 183.733 259.651C183.793 259.651 183.85 259.675 183.892 259.717C183.935 259.759 183.958 259.816 183.958 259.876V267.43C183.958 267.49 183.935 267.547 183.892 267.589C183.85 267.631 183.793 267.655 183.733 267.655Z" fill="white"/>
<path d="M183.082 261.664H182.999C182.972 261.654 182.948 261.638 182.927 261.618C182.907 261.598 182.89 261.574 182.879 261.547C182.868 261.521 182.863 261.492 182.863 261.463C182.863 261.435 182.869 261.406 182.881 261.38L183.674 259.557L184.55 260.575C184.588 260.619 184.607 260.676 184.602 260.734C184.598 260.791 184.571 260.845 184.527 260.883C184.505 260.901 184.48 260.915 184.452 260.924C184.425 260.933 184.396 260.937 184.368 260.935C184.31 260.93 184.256 260.903 184.219 260.859L183.792 260.373L183.283 261.557C183.263 261.592 183.234 261.621 183.198 261.64C183.162 261.659 183.122 261.667 183.082 261.664Z" fill="white"/>
<path d="M185.781 266.483C185.724 266.483 185.668 266.461 185.626 266.421C185.585 266.382 185.56 266.327 185.557 266.27V258.716C185.557 258.656 185.58 258.599 185.622 258.557C185.665 258.515 185.722 258.491 185.781 258.491C185.811 258.489 185.841 258.494 185.87 258.504C185.898 258.515 185.923 258.532 185.944 258.553C185.966 258.574 185.982 258.6 185.993 258.628C186.004 258.656 186.008 258.686 186.006 258.716V266.27C186.006 266.299 186.001 266.327 185.989 266.354C185.978 266.381 185.961 266.405 185.94 266.425C185.919 266.445 185.894 266.46 185.867 266.47C185.839 266.48 185.81 266.484 185.781 266.483Z" fill="white"/>
<path d="M185.13 260.48C185.104 260.49 185.074 260.49 185.047 260.48C185.021 260.47 184.996 260.454 184.976 260.434C184.955 260.414 184.939 260.39 184.928 260.363C184.916 260.337 184.911 260.308 184.911 260.279C184.911 260.251 184.917 260.222 184.929 260.196L185.722 258.372L186.598 259.391C186.638 259.432 186.659 259.487 186.659 259.545C186.659 259.602 186.638 259.657 186.598 259.699C186.577 259.72 186.553 259.736 186.525 259.748C186.498 259.759 186.468 259.765 186.439 259.765C186.409 259.765 186.379 259.759 186.352 259.748C186.325 259.736 186.3 259.72 186.279 259.699L185.864 259.213L185.355 260.397C185.329 260.431 185.295 260.456 185.255 260.471C185.215 260.486 185.172 260.489 185.13 260.48Z" fill="white"/>
<path d="M161.805 284.799L137.758 270.923V215.381L161.805 229.27V284.799Z" fill="#E0E0E0"/>
<path d="M148.924 229.72L152.18 231.602V223.717L148.924 221.834V229.72Z" fill="#F5F5F5"/>
<path d="M152.18 223.717L185.853 204.276L182.585 202.393L148.924 221.834L152.18 223.717Z" fill="white"/>
<path d="M152.18 257.035L108.904 232.052L65.6173 257.035L108.904 282.029L152.18 257.035Z" fill="#F5F5F5"/>
<path d="M108.904 315.347L152.179 290.364V257.035L108.904 282.029V315.347Z" fill="#EBEBEB"/>
<path d="M114.457 304.288C114.307 304.285 114.161 304.244 114.031 304.17C113.846 304.036 113.699 303.857 113.603 303.649C113.508 303.442 113.468 303.213 113.486 302.986V299.434V299.173H113.664L116.434 297.539V301.494C116.427 301.999 116.299 302.496 116.063 302.942C115.826 303.389 115.487 303.773 115.073 304.063C114.891 304.19 114.678 304.268 114.457 304.288ZM113.924 299.706V302.974C113.903 303.124 113.922 303.277 113.978 303.419C114.034 303.56 114.126 303.684 114.244 303.779C114.341 303.823 114.448 303.841 114.554 303.831C114.66 303.82 114.761 303.782 114.848 303.72C115.201 303.471 115.492 303.144 115.697 302.764C115.903 302.384 116.017 301.961 116.032 301.529V301.233H114.966L114.765 299.848L113.924 299.706ZM115.345 300.795H116.032V298.368L114.386 299.339L115.203 299.481L115.345 300.795Z" fill="white"/>
<path d="M114.955 307.106C114.927 307.106 114.899 307.1 114.873 307.09C114.847 307.079 114.824 307.063 114.804 307.043C114.784 307.024 114.768 307 114.758 306.974C114.747 306.949 114.742 306.921 114.742 306.893V303.921C114.734 303.888 114.734 303.854 114.741 303.821C114.748 303.787 114.763 303.757 114.784 303.73C114.805 303.703 114.832 303.682 114.863 303.667C114.893 303.652 114.927 303.645 114.961 303.645C114.994 303.645 115.028 303.652 115.058 303.667C115.089 303.682 115.116 303.703 115.137 303.73C115.158 303.757 115.173 303.787 115.18 303.821C115.187 303.854 115.187 303.888 115.18 303.921V306.893C115.18 306.922 115.174 306.951 115.162 306.977C115.151 307.004 115.134 307.028 115.113 307.048C115.092 307.068 115.067 307.083 115.04 307.093C115.013 307.103 114.984 307.108 114.955 307.106Z" fill="white"/>
<path d="M113.664 307.84C113.617 307.837 113.571 307.819 113.535 307.789C113.498 307.759 113.472 307.718 113.46 307.672C113.449 307.626 113.452 307.577 113.469 307.533C113.486 307.489 113.517 307.451 113.558 307.426L116.139 305.946C116.162 305.929 116.189 305.917 116.217 305.912C116.246 305.906 116.275 305.907 116.303 305.913C116.331 305.92 116.357 305.933 116.38 305.951C116.403 305.969 116.421 305.991 116.435 306.017C116.452 306.041 116.463 306.069 116.469 306.098C116.475 306.127 116.474 306.157 116.467 306.186C116.461 306.215 116.448 306.243 116.43 306.266C116.412 306.29 116.39 306.31 116.364 306.324L113.783 307.84H113.664Z" fill="white"/>
<path d="M122.852 302.749C122.774 302.766 122.693 302.766 122.615 302.749C122.525 302.691 122.451 302.61 122.403 302.514C122.355 302.418 122.334 302.311 122.343 302.204V301.6C122.343 301.541 122.366 301.483 122.409 301.441C122.451 301.399 122.508 301.375 122.568 301.375C122.627 301.375 122.685 301.399 122.727 301.441C122.769 301.483 122.793 301.541 122.793 301.6V302.204C122.776 302.254 122.776 302.308 122.793 302.358C122.793 302.358 122.864 302.358 122.947 302.358C123.08 302.228 123.185 302.071 123.254 301.897C123.324 301.724 123.356 301.538 123.349 301.352V297.409C123.352 297.35 123.377 297.295 123.418 297.253C123.46 297.212 123.515 297.187 123.574 297.184C123.634 297.184 123.691 297.208 123.733 297.25C123.775 297.292 123.799 297.349 123.799 297.409V301.352C123.809 301.615 123.757 301.878 123.648 302.118C123.539 302.359 123.376 302.57 123.171 302.737C123.067 302.766 122.958 302.77 122.852 302.749Z" fill="white"/>
<path d="M120.519 299.303V298.913C120.571 297.927 120.855 296.968 121.349 296.114C121.843 295.26 122.533 294.535 123.361 293.999C123.655 293.748 124.02 293.594 124.405 293.558C124.79 293.523 125.177 293.608 125.512 293.801C125.847 293.995 126.114 294.287 126.276 294.639C126.438 294.99 126.486 295.383 126.416 295.763V295.893L120.519 299.303ZM124.687 294.035C124.293 294.055 123.911 294.173 123.574 294.378C122.872 294.844 122.277 295.455 121.83 296.17C121.383 296.884 121.093 297.686 120.981 298.522L125.966 295.633C125.985 295.355 125.933 295.076 125.815 294.824C125.697 294.571 125.517 294.352 125.291 294.188C125.107 294.084 124.898 294.031 124.687 294.035Z" fill="white"/>
<path d="M130.832 298.202C130.802 298.204 130.772 298.199 130.744 298.189C130.716 298.178 130.69 298.161 130.669 298.14C130.648 298.119 130.631 298.093 130.621 298.065C130.61 298.037 130.605 298.007 130.607 297.977V290.423C130.599 290.39 130.599 290.356 130.607 290.323C130.614 290.29 130.629 290.259 130.65 290.232C130.671 290.206 130.698 290.184 130.728 290.17C130.759 290.155 130.792 290.147 130.826 290.147C130.86 290.147 130.893 290.155 130.924 290.17C130.954 290.184 130.981 290.206 131.002 290.232C131.023 290.259 131.038 290.29 131.046 290.323C131.053 290.356 131.053 290.39 131.045 290.423V297.977C131.047 298.006 131.042 298.035 131.032 298.062C131.022 298.09 131.007 298.115 130.987 298.136C130.967 298.157 130.943 298.174 130.916 298.185C130.89 298.196 130.861 298.202 130.832 298.202Z" fill="white"/>
<path d="M130.24 292.152H130.145C130.118 292.141 130.093 292.124 130.073 292.102C130.053 292.081 130.037 292.055 130.027 292.027C130.017 292 130.013 291.97 130.015 291.94C130.017 291.911 130.025 291.882 130.039 291.856L130.82 290.033L131.708 291.051C131.748 291.096 131.767 291.156 131.763 291.216C131.758 291.276 131.73 291.331 131.685 291.371C131.639 291.41 131.58 291.429 131.52 291.425C131.46 291.42 131.404 291.392 131.365 291.347L130.951 290.861L130.441 292.045C130.42 292.079 130.391 292.107 130.355 292.126C130.32 292.145 130.28 292.154 130.24 292.152Z" fill="white"/>
<path d="M132.88 297.03C132.821 297.03 132.763 297.006 132.721 296.964C132.679 296.922 132.655 296.865 132.655 296.805V289.251C132.655 289.192 132.679 289.134 132.721 289.092C132.763 289.05 132.821 289.026 132.88 289.026C132.94 289.026 132.997 289.05 133.039 289.092C133.082 289.134 133.105 289.192 133.105 289.251V296.805C133.105 296.865 133.082 296.922 133.039 296.964C132.997 297.006 132.94 297.03 132.88 297.03Z" fill="white"/>
<path d="M132.229 290.98H132.146C132.119 290.969 132.095 290.954 132.074 290.934C132.054 290.914 132.037 290.89 132.026 290.863C132.015 290.836 132.01 290.808 132.01 290.779C132.01 290.75 132.016 290.722 132.028 290.696L132.821 288.86L133.697 289.879C133.718 289.9 133.735 289.925 133.747 289.952C133.758 289.979 133.764 290.009 133.764 290.039C133.764 290.068 133.758 290.098 133.747 290.125C133.735 290.153 133.718 290.177 133.697 290.198C133.677 290.219 133.654 290.236 133.627 290.247C133.601 290.258 133.572 290.264 133.543 290.264C133.515 290.264 133.486 290.258 133.46 290.247C133.433 290.236 133.409 290.219 133.389 290.198L132.963 289.713L132.454 290.897C132.429 290.932 132.394 290.958 132.354 290.973C132.314 290.988 132.271 290.99 132.229 290.98Z" fill="white"/>
<path d="M108.904 315.347L65.6173 290.364V257.035L108.904 282.029V315.347Z" fill="#E0E0E0"/>
<path d="M85.627 276.476L88.883 278.358V270.473L85.627 268.59V276.476Z" fill="#F5F5F5"/>
<path d="M88.883 270.473L132.17 245.491L128.914 243.596L85.627 268.59L88.883 270.473Z" fill="white"/>
<path d="M72.4726 277.66L82.7971 283.58C83.3944 283.969 83.892 284.494 84.2498 285.111C84.6076 285.728 84.8157 286.42 84.8573 287.132V293.514C84.8573 294.816 83.9338 295.349 82.7971 294.698L72.4726 288.778C71.8756 288.389 71.3788 287.864 71.0228 287.247C70.6669 286.63 70.4618 285.937 70.4243 285.226V278.856C70.4243 277.53 71.3478 277.056 72.4726 277.66Z" fill="#F5F5F5"/>
<path d="M71.6794 279.246L72.0702 279.471V286.552L71.6794 286.327V279.246Z" fill="#E0E0E0"/>
<path d="M73.266 280.17L73.9527 280.572V287.641L73.266 287.25V280.17Z" fill="#E0E0E0"/>
<path d="M74.8643 281.093L75.2668 281.318L75.255 288.399L74.8643 288.174V281.093Z" fill="#E0E0E0"/>
<path d="M76.072 281.78L76.8653 282.242L76.8535 289.322L76.072 288.849V281.78Z" fill="#E0E0E0"/>
<path d="M78.0612 282.94L78.4519 283.165V290.246L78.0612 290.009V282.94Z" fill="#E0E0E0"/>
<path d="M79.2097 283.592L80.0504 284.089V291.157L79.2097 290.66V283.592Z" fill="#E0E0E0"/>
<path d="M81.2579 284.788L81.6487 285.012V292.081L81.2579 291.856V284.788Z" fill="#E0E0E0"/>
<path d="M82.1697 285.297L82.371 285.415V292.484L82.1697 292.377V285.297Z" fill="#E0E0E0"/>
<path d="M80.5356 284.397L80.7251 284.503V291.584L80.5356 291.477V284.397Z" fill="#E0E0E0"/>
<path d="M77.3152 282.514L77.5046 282.621V289.701L77.3152 289.583V282.514Z" fill="#E0E0E0"/>
<path d="M75.551 281.496L75.7523 281.614V288.683L75.551 288.576V281.496Z" fill="#E0E0E0"/>
<path d="M74.2843 280.797L74.4856 280.916V287.996L74.2843 287.878V280.797Z" fill="#E0E0E0"/>
<path d="M72.5674 279.756L72.7687 279.874V286.942L72.5674 286.836V279.756Z" fill="#E0E0E0"/>
<path d="M82.8563 285.699L83.247 285.936V293.004L82.8563 292.779V285.699Z" fill="#E0E0E0"/>
<path d="M142.566 190.399L108.904 170.958L75.2314 190.399L108.904 209.828L142.566 190.399Z" fill="#F5F5F5"/>
<path d="M108.904 276.476L142.565 257.035V190.399L108.904 209.828V276.476Z" fill="#EBEBEB"/>
<path d="M114.457 265.417C114.308 265.419 114.162 265.382 114.031 265.311C113.846 265.177 113.699 264.998 113.603 264.79C113.508 264.583 113.468 264.354 113.486 264.127V260.575V260.314H113.664L116.434 258.692V262.635C116.428 263.142 116.301 263.641 116.064 264.089C115.827 264.538 115.488 264.924 115.073 265.216C114.889 265.336 114.677 265.405 114.457 265.417ZM113.924 260.835V264.115C113.906 264.265 113.925 264.418 113.981 264.558C114.037 264.699 114.127 264.824 114.244 264.92C114.341 264.964 114.448 264.982 114.554 264.972C114.66 264.961 114.761 264.923 114.848 264.861C115.201 264.61 115.492 264.28 115.698 263.898C115.903 263.516 116.017 263.092 116.032 262.659V262.374H114.966L114.765 260.989L113.924 260.835ZM115.345 261.924H116.032V259.497L114.386 260.468L115.203 260.61L115.345 261.924Z" fill="white"/>
<path d="M114.955 268.235C114.926 268.235 114.897 268.229 114.87 268.218C114.843 268.206 114.819 268.19 114.799 268.169C114.78 268.148 114.764 268.123 114.754 268.095C114.744 268.068 114.74 268.039 114.741 268.01V265.05C114.74 265.021 114.744 264.992 114.754 264.965C114.764 264.938 114.78 264.913 114.799 264.892C114.819 264.871 114.843 264.854 114.87 264.843C114.897 264.831 114.926 264.825 114.955 264.825C114.985 264.824 115.015 264.828 115.043 264.839C115.071 264.85 115.096 264.866 115.117 264.887C115.139 264.909 115.155 264.934 115.166 264.962C115.177 264.99 115.181 265.02 115.179 265.05V268.01C115.181 268.04 115.177 268.07 115.166 268.098C115.155 268.126 115.139 268.152 115.117 268.173C115.096 268.194 115.071 268.211 115.043 268.222C115.015 268.232 114.985 268.237 114.955 268.235Z" fill="white"/>
<path d="M113.664 268.981C113.617 268.978 113.571 268.96 113.535 268.93C113.498 268.9 113.472 268.859 113.46 268.813C113.449 268.767 113.452 268.718 113.469 268.674C113.486 268.63 113.517 268.592 113.558 268.567L116.139 267.075C116.19 267.045 116.252 267.037 116.31 267.053C116.368 267.068 116.417 267.106 116.447 267.158C116.476 267.21 116.484 267.271 116.469 267.329C116.453 267.387 116.415 267.436 116.364 267.466L113.783 268.946C113.748 268.97 113.706 268.982 113.664 268.981Z" fill="white"/>
<path d="M122.852 263.878C122.768 263.878 122.685 263.854 122.615 263.807C122.525 263.752 122.451 263.674 122.403 263.579C122.355 263.485 122.334 263.38 122.343 263.274V262.67C122.343 262.611 122.366 262.554 122.409 262.511C122.451 262.469 122.508 262.445 122.568 262.445C122.627 262.445 122.685 262.469 122.727 262.511C122.769 262.554 122.793 262.611 122.793 262.67V263.274C122.776 263.324 122.776 263.378 122.793 263.428C122.843 263.442 122.896 263.442 122.947 263.428C123.082 263.301 123.188 263.147 123.257 262.975C123.327 262.803 123.358 262.619 123.349 262.434V258.491C123.349 258.431 123.373 258.374 123.415 258.332C123.457 258.29 123.514 258.266 123.574 258.266C123.604 258.264 123.634 258.269 123.662 258.28C123.69 258.29 123.716 258.307 123.737 258.328C123.758 258.349 123.775 258.375 123.785 258.403C123.796 258.431 123.801 258.461 123.799 258.491V262.434C123.809 262.697 123.757 262.96 123.648 263.2C123.539 263.44 123.376 263.652 123.172 263.819C123.071 263.864 122.962 263.884 122.852 263.878Z" fill="white"/>
<path d="M120.519 260.48V260.101C120.573 259.115 120.858 258.155 121.352 257.299C121.845 256.443 122.534 255.716 123.361 255.176C123.658 254.93 124.023 254.781 124.407 254.75C124.79 254.718 125.175 254.805 125.508 254.998C125.841 255.192 126.106 255.483 126.269 255.832C126.431 256.182 126.482 256.572 126.416 256.952V257.07L120.519 260.48ZM124.687 255.223C124.293 255.243 123.911 255.361 123.574 255.566C122.873 256.031 122.279 256.64 121.832 257.353C121.385 258.066 121.095 258.865 120.981 259.699L125.966 256.821C125.987 256.543 125.936 256.264 125.818 256.011C125.7 255.757 125.518 255.539 125.291 255.377C125.113 255.252 124.904 255.178 124.687 255.164V255.223Z" fill="white"/>
<path d="M130.832 259.296C130.772 259.296 130.715 259.272 130.673 259.23C130.631 259.188 130.607 259.131 130.607 259.071V251.517C130.599 251.484 130.599 251.45 130.607 251.417C130.614 251.384 130.629 251.353 130.65 251.326C130.671 251.3 130.698 251.278 130.728 251.263C130.759 251.249 130.792 251.241 130.826 251.241C130.86 251.241 130.893 251.249 130.924 251.263C130.954 251.278 130.981 251.3 131.002 251.326C131.023 251.353 131.038 251.384 131.046 251.417C131.053 251.45 131.053 251.484 131.045 251.517V259.071C131.045 259.129 131.023 259.184 130.983 259.226C130.944 259.268 130.89 259.293 130.832 259.296Z" fill="white"/>
<path d="M130.24 253.269H130.145C130.118 253.258 130.093 253.241 130.073 253.22C130.053 253.198 130.037 253.173 130.027 253.145C130.017 253.117 130.013 253.087 130.015 253.058C130.017 253.028 130.025 253 130.039 252.973L130.82 251.15L131.708 252.168C131.747 252.21 131.769 252.265 131.769 252.322C131.769 252.379 131.747 252.434 131.708 252.476C131.665 252.516 131.608 252.538 131.548 252.538C131.489 252.538 131.432 252.516 131.389 252.476L130.974 251.991L130.465 253.175C130.442 253.212 130.408 253.241 130.367 253.257C130.327 253.274 130.283 253.279 130.24 253.269Z" fill="white"/>
<path d="M132.88 258.112C132.822 258.109 132.766 258.085 132.724 258.043C132.683 258.001 132.658 257.946 132.655 257.887V250.333C132.655 250.273 132.679 250.216 132.721 250.174C132.763 250.132 132.821 250.108 132.88 250.108C132.94 250.108 132.997 250.132 133.039 250.174C133.082 250.216 133.105 250.273 133.105 250.333V257.887C133.102 257.946 133.078 258.001 133.036 258.043C132.995 258.085 132.939 258.109 132.88 258.112Z" fill="white"/>
<path d="M132.229 252.109H132.146C132.119 252.097 132.094 252.081 132.074 252.059C132.053 252.038 132.036 252.013 132.025 251.986C132.014 251.958 132.009 251.929 132.009 251.899C132.01 251.87 132.016 251.84 132.028 251.813L132.821 249.99L133.697 251.008C133.718 251.029 133.735 251.054 133.747 251.081C133.758 251.109 133.764 251.138 133.764 251.168C133.764 251.198 133.758 251.227 133.747 251.254C133.735 251.282 133.718 251.307 133.697 251.328C133.654 251.364 133.6 251.385 133.543 251.385C133.487 251.385 133.432 251.364 133.389 251.328L132.963 250.842L132.454 252.026C132.428 252.06 132.393 252.085 132.353 252.1C132.314 252.115 132.271 252.118 132.229 252.109Z" fill="white"/>
<path d="M108.904 276.476L75.2314 257.035V190.399L108.904 209.828V276.476Z" fill="#E0E0E0"/>
<path d="M91.2036 207.496L94.4715 209.379V201.505L91.2036 199.611V207.496Z" fill="#F5F5F5"/>
<path d="M94.4715 201.505L128.133 182.064L124.877 180.181L91.2036 199.611L94.4715 201.505Z" fill="white"/>
<path d="M82.0868 244.33L92.4113 250.25C93.009 250.638 93.5063 251.163 93.8623 251.78C94.2183 252.397 94.423 253.09 94.4596 253.802V260.172C94.4596 261.475 93.5479 262.007 92.4113 261.356L82.0868 255.436C81.4875 255.049 80.9884 254.525 80.6304 253.907C80.2723 253.29 80.0654 252.597 80.0266 251.884V245.514C80.0385 244.212 80.9501 243.679 82.0868 244.33Z" fill="#F5F5F5"/>
<path d="M81.2817 245.929L81.6725 246.154V253.234L81.2817 252.997V245.929Z" fill="#E0E0E0"/>
<path d="M82.88 246.852L83.5549 247.243V254.323L82.88 253.921V246.852Z" fill="#E0E0E0"/>
<path d="M84.4784 247.764L84.8691 248.001V255.069L84.4784 254.844V247.764Z" fill="#E0E0E0"/>
<path d="M85.6862 248.451L86.4676 248.924V255.993L85.6862 255.531V248.451Z" fill="#E0E0E0"/>
<path d="M87.6752 249.611L88.0659 249.836V256.916L87.6752 256.691V249.611Z" fill="#E0E0E0"/>
<path d="M88.8236 250.262L89.6643 250.759V257.84L88.8236 257.342V250.262Z" fill="#E0E0E0"/>
<path d="M90.8721 251.458L91.2628 251.683V258.763L90.8721 258.526V251.458Z" fill="#E0E0E0"/>
<path d="M91.7837 251.979L91.9731 252.085V259.166L91.7837 259.047V251.979Z" fill="#E0E0E0"/>
<path d="M90.1379 251.067L90.3392 251.186V258.266L90.1379 258.148V251.067Z" fill="#E0E0E0"/>
<path d="M86.9175 249.185L87.1188 249.303V256.372L86.9175 256.265V249.185Z" fill="#E0E0E0"/>
<path d="M85.1533 248.178L85.3546 248.285V255.365L85.1533 255.247V248.178Z" fill="#E0E0E0"/>
<path d="M83.8983 247.48L84.0878 247.586V254.667L83.8983 254.548V247.48Z" fill="#E0E0E0"/>
<path d="M82.1815 246.438L82.371 246.544V253.625L82.1815 253.506V246.438Z" fill="#E0E0E0"/>
<path d="M92.4586 252.381L92.8612 252.606V259.675L92.4586 259.45V252.381Z" fill="#E0E0E0"/>
<path d="M75.551 373.848L204.773 448.44C206.362 449.246 208.118 449.666 209.9 449.666C211.681 449.666 213.437 449.246 215.026 448.44L498.156 285.048C500.986 283.414 500.986 280.762 498.156 279.128L368.934 204.536C367.347 203.724 365.59 203.301 363.808 203.301C362.025 203.301 360.268 203.724 358.681 204.536L75.551 367.928C72.7213 369.562 72.7213 372.214 75.551 373.848Z" fill="#455A64"/>
<path d="M145.395 408.48C147.598 409.592 150.032 410.171 152.499 410.171C154.967 410.171 157.4 409.592 159.603 408.48C163.546 406.207 163.546 402.56 159.603 400.251C157.402 399.134 154.968 398.552 152.499 398.552C150.031 398.552 147.597 399.134 145.395 400.251C141.453 402.56 141.453 406.23 145.395 408.48Z" fill="#263238"/>
<path d="M207.2 448.44L77.9783 373.848C75.4445 372.38 75.184 370.107 77.185 368.473C75.9212 369.472 74.8821 370.727 74.1354 372.155C73.3888 373.583 72.9513 375.152 72.8516 376.761V381.58C72.9488 383.358 73.4635 385.089 74.3542 386.632C75.2449 388.175 76.4865 389.486 77.9783 390.46L207.2 465.052C208.78 465.877 210.545 466.284 212.327 466.236V449.671C210.541 449.706 208.776 449.282 207.2 448.44Z" fill="#37474F"/>
<path d="M498.144 301.648C499.64 300.677 500.885 299.366 501.777 297.823C502.67 296.28 503.186 294.548 503.283 292.768V287.949C503.187 286.338 502.75 284.767 502.001 283.338C501.252 281.909 500.208 280.656 498.938 279.661C500.95 281.295 500.69 283.568 498.156 285.024L215.026 448.44C213.445 449.262 211.681 449.67 209.9 449.624V466.283C211.681 466.329 213.445 465.921 215.026 465.099L498.144 301.648Z" fill="#263238"/>
<path d="M226.061 432.989L102.381 361.546C100.676 360.563 100.676 358.965 102.381 357.994L341.454 219.928C342.408 219.443 343.462 219.191 344.532 219.191C345.602 219.191 346.657 219.443 347.611 219.928L471.339 291.359C473.032 292.341 473.032 293.928 471.339 294.911L232.171 432.989C231.223 433.466 230.177 433.714 229.116 433.714C228.055 433.714 227.009 433.466 226.061 432.989Z" fill="white"/>
<path d="M176.227 393.1L190.66 384.764L185.853 381.994L171.42 390.317L176.227 393.1Z" fill="#F39237"/>
<path d="M349.375 293.135L363.808 284.799L358.989 282.029L344.568 290.364L349.375 293.135Z" fill="#F39237"/>
<path d="M378.229 276.476L392.662 268.14L387.855 265.37L373.422 273.693L378.229 276.476Z" fill="#F39237"/>
<path d="M424.547 247.29C425.108 247.571 425.726 247.716 426.353 247.716C426.979 247.716 427.598 247.571 428.158 247.29C428.375 247.216 428.564 247.076 428.698 246.889C428.831 246.702 428.903 246.478 428.903 246.248C428.903 246.019 428.831 245.795 428.698 245.608C428.564 245.421 428.375 245.281 428.158 245.206C427.599 244.921 426.98 244.772 426.353 244.772C425.725 244.772 425.106 244.921 424.547 245.206C424.33 245.281 424.141 245.421 424.007 245.608C423.874 245.795 423.802 246.019 423.802 246.248C423.802 246.478 423.874 246.702 424.007 246.889C424.141 247.076 424.33 247.216 424.547 247.29Z" fill="#263238"/>
<path d="M430.313 263.641C431.431 264.207 432.666 264.502 433.918 264.502C435.171 264.502 436.406 264.207 437.524 263.641C439.513 262.457 439.513 260.622 437.524 259.474C436.406 258.908 435.171 258.613 433.918 258.613C432.666 258.613 431.431 258.908 430.313 259.474C428.324 260.622 428.324 262.493 430.313 263.641Z" fill="#263238"/>
<path d="M425.222 256.395C426.548 255.626 426.477 254.347 425.068 253.53L401.388 239.831C400.626 239.422 399.778 239.201 398.913 239.184C398.048 239.168 397.192 239.357 396.415 239.736C395.089 240.506 395.16 241.785 396.569 242.602L420.32 256.3C421.073 256.697 421.909 256.911 422.76 256.928C423.611 256.944 424.454 256.762 425.222 256.395Z" fill="#263238"/>
<path d="M384.8 200.842L385.605 200.368C385.049 202.389 384.778 204.477 384.8 206.572V209.461C384.8 219.833 397.244 246.331 401.826 255.708C402.299 256.691 396.012 263.381 396.012 263.381L403.483 259.071C403.483 259.071 422.155 243.679 422.155 231.034V228.145C422.155 215.441 413.796 200.321 403.483 194.365C398.274 191.37 393.573 191.263 390.187 193.537L383.083 197.61L384.8 200.842ZM394.142 210.539C394.142 204.619 398.321 202.168 403.483 205.152C403.057 208.976 410.043 220.887 412.813 221.325C412.813 227.245 408.634 229.696 403.483 226.712C400.772 224.936 398.518 222.546 396.903 219.736C395.289 216.926 394.359 213.775 394.189 210.539H394.142Z" fill="#F39237"/>
<path d="M377.116 214.091C377.329 226.783 396.604 263.381 396.604 263.381C396.604 263.381 415.028 247.728 414.826 235.036V232.147C414.613 219.454 406.005 204.465 395.586 198.687C385.167 192.909 376.903 198.498 377.116 211.202V214.091ZM386.469 215.014C386.375 209.094 390.519 206.572 395.716 209.461C398.464 211.189 400.765 213.539 402.434 216.323C404.102 219.106 405.09 222.244 405.319 225.481C405.425 231.401 401.281 233.923 396.072 231.034C393.328 229.303 391.029 226.952 389.361 224.169C387.693 221.386 386.702 218.25 386.469 215.014Z" fill="#F39237"/>
<path opacity="0.1" d="M377.116 214.091C377.329 226.783 396.604 263.381 396.604 263.381C396.604 263.381 415.028 247.728 414.826 235.036V232.147C414.613 219.454 406.005 204.465 395.586 198.687C385.167 192.909 376.903 198.498 377.116 211.202V214.091ZM386.469 215.014C386.375 209.094 390.519 206.572 395.716 209.461C398.464 211.189 400.765 213.539 402.434 216.323C404.102 219.106 405.09 222.244 405.319 225.481C405.425 231.401 401.281 233.923 396.072 231.034C393.328 229.303 391.029 226.952 389.361 224.169C387.693 221.386 386.702 218.25 386.469 215.014Z" fill="black"/>
<path d="M196.544 383.367C208.514 390.258 236.575 385.25 259.225 372.167L321.444 336.256C344.094 323.173 352.737 306.999 340.743 300.12C328.75 293.241 300.665 298.273 277.991 311.345L215.891 347.208C193.253 360.279 184.586 376.512 196.544 383.367Z" fill="#F0F0F0"/>
<path d="M377.696 82.3117H377.755L387.997 76.3917H388.08C394.532 73.1238 403.152 74.0237 412.435 80.0621C431.094 92.0678 445.338 119.773 444.26 141.926C443.716 152.973 439.524 160.55 433.048 163.889H432.989L422.735 169.809H422.664C416.211 173.089 407.58 172.177 398.286 166.151C379.638 154.133 365.394 126.439 366.472 104.287C367.04 93.2282 371.291 85.6505 377.696 82.3117Z" fill="#37474F"/>
<path d="M423.256 169.501L433.024 163.818H433.095C439.513 160.467 443.751 152.89 444.296 141.855C444.77 131.98 442.2 121.005 437.559 110.811L427.306 116.731C431.959 126.925 434.528 137.9 434.043 147.787C433.533 158.561 429.461 166.056 423.256 169.501Z" fill="#263238"/>
<path d="M398.333 166.139C379.685 154.121 365.442 126.428 366.519 104.275C367.596 82.1222 383.616 73.8934 402.228 85.8992C420.841 97.905 435.132 125.611 434.054 147.763C432.977 169.916 416.981 178.145 398.333 166.139Z" fill="#455A64"/>
<path d="M413.962 164.576C424.961 165.109 426.749 152.736 426.986 147.408C427.933 127.872 414.838 102.416 398.392 91.8192C394.888 89.3646 390.81 87.8557 386.552 87.4384C375.565 86.9056 373.777 99.2784 373.528 104.606C372.581 124.142 385.664 149.598 402.122 160.254C405.626 162.709 409.704 164.218 413.962 164.635V164.576Z" fill="#FAFAFA"/>
<path d="M398.132 129.684C398.262 129.684 398.39 129.66 398.511 129.612C398.758 129.532 398.972 129.373 399.12 129.159C399.267 128.945 399.34 128.688 399.328 128.428V100.214C399.328 99.8997 399.203 99.5986 398.981 99.3765C398.759 99.1545 398.458 99.0298 398.144 99.0298C397.83 99.0298 397.529 99.1545 397.307 99.3765C397.084 99.5986 396.96 99.8997 396.96 100.214V124.995L383.782 108.064C383.587 107.812 383.301 107.649 382.985 107.609C382.67 107.569 382.352 107.656 382.101 107.851C381.849 108.045 381.686 108.332 381.646 108.647C381.606 108.962 381.693 109.281 381.887 109.532L397.22 129.222C397.328 129.362 397.466 129.476 397.624 129.556C397.781 129.636 397.955 129.68 398.132 129.684Z" fill="#37474F"/>
<path d="M404.928 150.557C404.983 150.568 405.039 150.568 405.094 150.557C405.219 150.519 405.325 150.433 405.389 150.319C405.453 150.204 405.47 150.069 405.437 149.942L398.795 127.576C398.757 127.449 398.671 127.342 398.554 127.279C398.437 127.215 398.301 127.201 398.173 127.239C398.046 127.276 397.939 127.363 397.876 127.479C397.813 127.596 397.798 127.733 397.836 127.86L404.466 150.226C404.5 150.322 404.563 150.405 404.645 150.464C404.728 150.523 404.826 150.556 404.928 150.557Z" fill="#F39237"/>
<path d="M398.511 122.828C396.308 121.419 394.426 122.39 394.307 124.995C394.315 126.416 394.657 127.815 395.307 129.078C395.958 130.341 396.897 131.433 398.049 132.265C400.239 133.685 402.122 132.715 402.252 130.11C402.242 128.688 401.898 127.288 401.248 126.023C400.599 124.759 399.661 123.664 398.511 122.828Z" fill="#F39237"/>
<path d="M205.093 376.441L219.514 368.106L214.707 365.335L200.286 373.659L205.093 376.441Z" fill="#F39237"/>
<path d="M233.947 359.782L248.38 351.447L243.561 348.676L229.14 357L233.947 359.782Z" fill="#F39237"/>
<path d="M228.015 356.384C228.015 363.346 223.137 371.776 217.11 375.328C213.902 377.187 211.013 377.246 209.023 375.849C208.222 375.219 207.563 374.425 207.091 373.521C206.62 372.616 206.346 371.622 206.288 370.604C206.693 370.415 207.089 370.205 207.472 369.976C213.499 366.507 218.377 358.042 218.377 351.032C218.383 350.514 218.351 349.995 218.282 349.481C219.186 349.003 220.178 348.719 221.198 348.645C222.217 348.572 223.24 348.711 224.202 349.055C226.57 350.05 228.015 352.619 228.015 356.384Z" fill="#263238"/>
<path d="M228.998 342.081L228.796 341.963C225.765 340.353 221.692 340.649 217.11 343.277C207.816 348.641 200.274 361.688 200.274 372.427C200.274 377.826 202.18 381.603 205.258 383.356C208.337 385.108 212.493 384.812 217.098 382.172C226.393 376.808 233.923 363.748 233.923 353.01C233.935 347.611 232.064 343.834 228.998 342.081ZM217.158 375.304C213.937 377.163 211.048 377.222 209.059 375.813C207.307 374.629 206.241 372.261 206.241 369.005C206.241 362.055 211.131 353.613 217.158 350.061C219.904 348.475 222.403 348.203 224.262 349.02C226.558 350.002 228.003 352.572 228.003 356.36C228.015 363.37 223.137 371.835 217.11 375.328L217.158 375.304Z" fill="#37474F"/>
<path d="M224.818 349.339L224.688 349.268C222.722 348.214 220.058 348.416 217.11 350.109C211.084 353.59 206.194 362.055 206.194 369.053C206.194 372.605 207.378 374.973 209.426 376.157C211.474 377.341 214.162 377.104 217.11 375.375C223.137 371.894 228.015 363.429 228.015 356.431C228.015 352.927 226.795 350.464 224.818 349.339ZM217.11 372.842C214.529 374.333 212.208 374.381 210.598 373.244C209.201 372.261 208.337 370.379 208.337 367.774C208.503 364.731 209.383 361.769 210.908 359.13C212.432 356.491 214.557 354.248 217.11 352.583C217.94 352.004 218.893 351.627 219.894 351.481C220.895 351.335 221.916 351.424 222.876 351.743C224.723 352.536 225.884 354.596 225.884 357.663C225.719 360.705 224.838 363.665 223.314 366.302C221.789 368.94 219.664 371.18 217.11 372.842Z" fill="#F39237"/>
<path d="M262.801 343.111L277.234 334.788L272.427 332.005L257.994 340.341L262.801 343.111Z" fill="#F39237"/>
<path d="M291.667 326.452L306.088 318.129L301.281 315.347L286.848 323.682L291.667 326.452Z" fill="#F39237"/>
<path d="M320.521 309.794L334.942 301.47L330.135 298.688L315.702 307.023L320.521 309.794Z" fill="#F39237"/>
<path d="M248.711 232.324C248.862 232.123 249.073 231.975 249.314 231.902C249.554 231.828 249.812 231.833 250.05 231.917C250.287 232 250.492 232.156 250.635 232.364C250.777 232.571 250.85 232.819 250.842 233.07C250.935 233.744 250.866 234.431 250.642 235.073C250.417 235.715 250.044 236.295 249.552 236.764C248.604 237.581 247.645 237.25 247.42 236.019C247.329 235.345 247.398 234.659 247.622 234.017C247.847 233.375 248.22 232.795 248.711 232.324Z" fill="#F39237"/>
<path d="M259.817 237.558L250.167 231.981L248.048 237.084L257.733 242.673L259.817 237.558Z" fill="#F39237"/>
<path d="M258.337 237.877C259.284 237.072 260.231 237.404 260.468 238.635C260.555 239.308 260.483 239.992 260.257 240.632C260.03 241.272 259.657 241.849 259.166 242.317C258.219 243.134 257.26 242.803 257.035 241.572C256.948 240.897 257.021 240.211 257.247 239.57C257.473 238.928 257.847 238.349 258.337 237.877Z" fill="#F39237"/>
<path d="M332.503 284.574C332.503 284.811 332.503 285.024 332.503 285.261C332.503 285.735 332.503 286.22 332.503 286.706C330.585 285.889 328.086 286.161 325.34 287.748C319.313 291.228 314.423 299.694 314.423 306.692C314.423 309.936 315.489 312.28 317.241 313.5C316.749 313.849 316.239 314.173 315.714 314.47L315.157 314.755L313.488 321.042L303.826 315.654C300.772 313.89 298.889 310.125 298.889 304.75C298.889 294.011 306.419 280.963 315.714 275.588C320.308 272.936 324.463 272.663 327.554 274.404L337.026 279.708L337.227 279.827L332.503 284.574Z" fill="#455A64"/>
<path d="M337.215 279.72L337.014 279.602C333.983 277.991 329.91 278.287 325.328 280.916C316.033 286.279 308.491 299.327 308.491 310.066C308.491 315.465 310.397 319.242 313.476 320.994C316.554 322.747 320.71 322.451 325.316 319.81C334.61 314.447 342.141 301.387 342.141 290.648C342.176 285.249 340.27 281.472 337.215 279.72ZM325.375 312.943C322.155 314.802 319.266 314.861 317.277 313.452C315.524 312.268 314.459 309.9 314.459 306.644C314.459 299.694 319.349 291.252 325.375 287.7C328.122 286.114 330.62 285.841 332.538 286.658C334.835 287.641 336.28 290.21 336.28 293.999C336.256 301.008 331.354 309.474 325.328 312.943H325.375Z" fill="#37474F"/>
<path d="M336.256 294.046C336.256 301.008 331.378 309.438 325.351 312.99C322.143 314.849 319.254 314.908 317.265 313.511C316.463 312.881 315.804 312.088 315.333 311.183C314.861 310.279 314.587 309.285 314.53 308.266C314.935 308.077 315.33 307.868 315.714 307.639C321.74 304.17 326.618 295.704 326.618 288.695C326.624 288.176 326.592 287.658 326.524 287.144C327.427 286.666 328.42 286.381 329.439 286.308C330.458 286.234 331.481 286.374 332.444 286.717C334.788 287.712 336.256 290.258 336.256 294.046Z" fill="#263238"/>
<path d="M333.035 286.978L332.905 286.895C330.94 285.853 328.264 286.043 325.328 287.748C319.301 291.228 314.411 299.682 314.411 306.691C314.411 310.243 315.595 312.611 317.643 313.795C319.692 314.979 322.379 314.731 325.328 313.002C331.354 309.533 336.232 301.068 336.232 294.058C336.256 290.565 335.072 288.115 333.035 286.978ZM325.328 310.468C322.735 311.972 320.414 312.02 318.816 310.883C317.407 309.9 316.554 308.018 316.554 305.413C316.72 302.369 317.601 299.408 319.125 296.769C320.65 294.129 322.774 291.887 325.328 290.222C327.53 288.943 329.543 288.718 331.082 289.381C332.929 290.175 334.089 292.235 334.089 295.301C333.925 298.341 333.046 301.298 331.523 303.933C330.001 306.569 327.878 308.808 325.328 310.468Z" fill="#F39237"/>
<path d="M315.702 297.587L342.934 281.863C346.095 280.028 335.83 269.313 328.193 268.59C323.989 268.082 319.724 268.486 315.69 269.774C315.69 269.774 321.503 277.222 320.509 281.449C319.514 285.676 315.702 297.587 315.702 297.587Z" fill="#F39237"/>
<path d="M277.234 253.151C277.234 253.151 316.708 273.066 318.413 274.262C320.118 275.458 318.413 289.346 315.702 297.587C312.99 305.827 308.823 318.496 307.153 322.048C305.484 325.6 303.305 326.926 299.303 329.235L270.887 345.657L232.419 350.346L217.146 342.058L221.124 317.063C221.124 317.063 262.007 295.313 267.608 292.081C273.208 288.849 289.772 273.682 277.234 253.151Z" fill="#F39237"/>
<path opacity="0.2" d="M277.234 253.151C277.234 253.151 316.708 273.066 318.413 274.262C320.118 275.458 318.413 289.346 315.702 297.587C312.99 305.827 308.823 318.496 307.153 322.048C305.484 325.6 303.305 326.926 299.303 329.235L270.887 345.657L232.419 350.346L217.146 342.058L221.124 317.063C221.124 317.063 262.007 295.313 267.608 292.081C273.208 288.849 289.772 273.682 277.234 253.151Z" fill="black"/>
<path d="M319.171 292.839C322.723 283.296 325.375 275.387 324.925 270.047C324.38 263.712 322.012 258.538 311.57 255.933C301.127 253.329 286.528 253.376 286.528 253.376L282.088 255.945C282.088 255.945 312.114 273.35 315.524 275.244C317.608 276.428 319.834 281.65 315.749 297.598L316.448 298.001C316.791 298.214 318.034 295.905 319.171 292.839Z" fill="#F39237"/>
<path opacity="0.3" d="M319.171 292.839C322.723 283.296 325.375 275.387 324.925 270.047C324.38 263.712 322.012 258.538 311.57 255.933C301.127 253.329 286.528 253.376 286.528 253.376L282.088 255.945C282.088 255.945 312.114 273.35 315.524 275.244C317.608 276.428 319.834 281.65 315.749 297.598L316.448 298.001C316.791 298.214 318.034 295.905 319.171 292.839Z" fill="white"/>
<path d="M296.426 264.257L301.281 261.486C301.281 261.486 300.997 244.662 293.916 240.577C286.836 236.492 262.801 239.275 262.801 239.275L257.994 242.045L296.426 264.257Z" fill="#F39237"/>
<path d="M280.679 244.425C278.37 245.763 278.37 247.918 280.679 249.244C281.974 249.903 283.406 250.247 284.859 250.247C286.311 250.247 287.744 249.903 289.038 249.244C291.335 247.918 291.335 245.751 289.038 244.425C287.742 243.771 286.31 243.431 284.859 243.431C283.407 243.431 281.975 243.771 280.679 244.425Z" fill="#F0F0F0"/>
<path d="M288.067 252.464C286.445 253.411 286.445 254.939 288.067 255.874C288.983 256.343 289.998 256.587 291.027 256.587C292.056 256.587 293.071 256.343 293.987 255.874C295.621 254.939 295.621 253.411 293.987 252.464C293.069 252.001 292.055 251.76 291.027 251.76C289.999 251.76 288.985 252.001 288.067 252.464Z" fill="#F0F0F0"/>
<path d="M269.467 242.282C267.833 243.217 267.833 244.745 269.467 245.692C270.384 246.155 271.398 246.396 272.427 246.396C273.455 246.396 274.469 246.155 275.387 245.692C277.02 244.745 277.02 243.217 275.387 242.282C274.47 241.813 273.456 241.569 272.427 241.569C271.397 241.569 270.383 241.813 269.467 242.282Z" fill="#F0F0F0"/>
<path d="M297.184 259.379C298.131 258.562 299.078 258.893 299.315 260.125C299.402 260.8 299.33 261.485 299.104 262.127C298.878 262.769 298.504 263.348 298.013 263.819C297.862 264.02 297.651 264.169 297.41 264.242C297.169 264.315 296.911 264.31 296.674 264.227C296.436 264.144 296.231 263.987 296.089 263.779C295.946 263.572 295.874 263.325 295.882 263.073C295.79 262.398 295.861 261.711 296.087 261.069C296.314 260.427 296.69 259.847 297.184 259.379Z" fill="#F39237"/>
<path d="M308.231 264.612L298.569 259.036L296.462 264.139L306.135 269.715L308.231 264.612Z" fill="#F39237"/>
<path d="M306.739 264.932C306.89 264.73 307.101 264.582 307.342 264.509C307.582 264.436 307.84 264.441 308.078 264.524C308.315 264.607 308.52 264.764 308.663 264.971C308.805 265.179 308.878 265.426 308.87 265.678C308.96 266.353 308.889 267.039 308.663 267.681C308.437 268.323 308.061 268.903 307.568 269.372C306.621 270.189 305.673 269.845 305.437 268.626C305.348 267.951 305.42 267.265 305.647 266.623C305.873 265.982 306.247 265.402 306.739 264.932Z" fill="#F39237"/>
<path d="M306.739 264.932C306.89 264.73 307.101 264.582 307.342 264.509C307.582 264.436 307.84 264.441 308.078 264.524C308.315 264.607 308.52 264.764 308.663 264.971C308.805 265.179 308.878 265.426 308.87 265.678C308.96 266.353 308.889 267.039 308.663 267.681C308.437 268.323 308.061 268.903 307.568 269.372C306.621 270.189 305.673 269.845 305.437 268.626C305.348 267.951 305.42 267.265 305.647 266.623C305.873 265.982 306.247 265.402 306.739 264.932Z" fill="black"/>
<path d="M224.285 346.912C224.285 347.149 224.285 347.362 224.285 347.599C224.285 348.072 224.285 348.558 224.285 349.043C222.367 348.226 219.869 348.499 217.181 350.085C211.154 353.566 206.265 362.032 206.265 369.029C206.265 372.273 207.33 374.618 209.082 375.837C208.59 376.187 208.081 376.511 207.555 376.808L206.999 377.092L205.329 383.379L195.668 377.992C192.613 376.228 190.73 372.463 190.73 367.087C190.73 356.348 198.261 343.301 207.555 337.925C212.149 335.273 216.305 335.001 219.395 336.741L228.867 342.046L229.068 342.164L224.285 346.912Z" fill="#455A64"/>
<path d="M195.467 328.122L188.256 353.116L202.689 361.452L210.16 336.611L195.467 328.122Z" fill="#F39237"/>
<path opacity="0.2" d="M195.467 328.122L188.256 353.116L202.689 361.452L210.16 336.611L195.467 328.122Z" fill="black"/>
<path d="M195.467 328.122C195.467 328.122 203.648 335.072 210.16 336.611C218.708 338.683 232.301 338.908 237.12 339.24C244.484 339.749 250.049 339.737 252.654 338.802C256.028 337.618 265.098 332.349 267.608 330.904C272.415 328.134 274.463 317.229 261.214 314.245C252.256 312.389 243.131 311.457 233.982 311.463L195.467 328.122Z" fill="#F39237"/>
<path d="M277.056 324.925C276.644 325.955 276.366 327.033 276.227 328.134C275.846 329.278 275.756 330.499 275.967 331.686C276.869 333.178 278.29 334.287 279.957 334.8C281.158 335.067 282.401 335.084 283.609 334.85C284.817 334.615 285.964 334.135 286.978 333.438C289.429 331.97 291.276 330.194 294.757 329.199C297.245 328.673 299.588 327.61 301.624 326.085C303.554 324.534 306.135 320.248 302.441 319.254C298.747 318.259 290.719 321.764 283.402 322.084L277.056 324.925Z" fill="#37474F"/>
<path d="M277.056 320.355V325.825C277.28 326.44 277.669 326.98 278.181 327.388C278.693 327.795 279.308 328.053 279.957 328.134C280.551 328.221 281.158 328.156 281.721 327.944C282.608 327.606 283.376 327.015 283.932 326.245C284.487 325.475 284.805 324.559 284.847 323.611L285.06 320.355H277.056Z" fill="#FFA8A7"/>
<path d="M287.475 286.528C287.475 293.336 285.557 322.77 285.557 322.77C285.557 322.77 282.775 326.322 276.724 322.77L274.688 289.879L287.475 286.528Z" fill="#37474F"/>
<path d="M255.744 315.536L274.688 304.62C275.464 304.212 276.114 303.6 276.568 302.85C277.021 302.1 277.261 301.24 277.261 300.363C277.261 299.486 277.021 298.626 276.568 297.876C276.114 297.126 275.464 296.514 274.688 296.107L260.575 287.961C259.78 287.558 258.902 287.348 258.011 287.348C257.121 287.348 256.243 287.558 255.448 287.961L236.504 298.877C235.731 299.287 235.084 299.9 234.634 300.65C234.183 301.4 233.944 302.259 233.944 303.134C233.944 304.009 234.183 304.867 234.634 305.617C235.084 306.367 235.731 306.98 236.504 307.39L250.617 315.536C251.412 315.939 252.29 316.148 253.181 316.148C254.071 316.148 254.949 315.939 255.744 315.536Z" fill="#F39237"/>
<path d="M255.744 315.536L274.688 304.62C275.464 304.212 276.114 303.6 276.568 302.85C277.021 302.1 277.261 301.24 277.261 300.363C277.261 299.486 277.021 298.626 276.568 297.876C276.114 297.126 275.464 296.514 274.688 296.107L260.575 287.961C259.78 287.558 258.902 287.348 258.011 287.348C257.121 287.348 256.243 287.558 255.448 287.961L236.504 298.877C235.731 299.287 235.084 299.9 234.634 300.65C234.183 301.4 233.944 302.259 233.944 303.134C233.944 304.009 234.183 304.867 234.634 305.617C235.084 306.367 235.731 306.98 236.504 307.39L250.617 315.536C251.412 315.939 252.29 316.148 253.181 316.148C254.071 316.148 254.949 315.939 255.744 315.536Z" fill="white"/>
<path d="M236.504 301.837L250.617 309.983C251.412 310.386 252.29 310.595 253.181 310.595C254.071 310.595 254.95 310.386 255.744 309.983L274.688 299.067C274.997 298.962 275.266 298.762 275.456 298.497C275.646 298.232 275.749 297.913 275.749 297.587C275.749 297.26 275.646 296.942 275.456 296.676C275.266 296.411 274.997 296.211 274.688 296.107L260.575 287.961C259.78 287.558 258.902 287.348 258.011 287.348C257.121 287.348 256.243 287.558 255.448 287.961L236.504 298.877C236.195 298.982 235.926 299.181 235.736 299.447C235.546 299.712 235.443 300.031 235.443 300.357C235.443 300.684 235.546 301.002 235.736 301.268C235.926 301.533 236.195 301.732 236.504 301.837Z" fill="#F39237"/>
<path d="M248.048 229.376L245.645 239.286L235.32 239.914L237.546 226.18L248.048 229.376Z" fill="#FFA8A7"/>
<path d="M258.112 221.917C258.112 221.917 259.296 226.108 258.811 226.345C258.065 226.459 257.307 226.459 256.561 226.345L258.112 221.917Z" fill="#F28F8F"/>
<path d="M256.135 208.538C257.792 210.492 259.308 213.7 258.136 221.562C256.857 230.158 255.271 231.152 253.992 231.981C252.322 233.07 245.645 232.49 243.762 231.117C241.501 229.471 238.008 224.25 237.179 219.099C236.208 213.049 238.233 206.336 242.685 205.187C248.948 203.565 254.726 206.88 256.135 208.538Z" fill="#FFA8A7"/>
<path d="M236.504 228.962C238.102 230.62 241.382 231.069 243.442 231.448C245.502 231.827 251.837 232.242 253.708 227.731C255.578 223.22 254.3 219.975 256.597 218.886C258.894 217.797 261.19 217.086 261.794 216.518C262.398 215.95 262.41 208.526 256.241 204.678C250.073 200.83 240.624 199.942 234.408 207.745C229.696 213.771 231.626 223.871 236.504 228.962Z" fill="#455A64"/>
<path d="M242.72 231.508C244.318 231.65 249.374 230.856 250.901 228.772C252.429 226.689 253.044 222.959 253.269 221.005C253.29 220.236 253.572 219.497 254.069 218.909C254.567 218.322 255.249 217.921 256.004 217.773C257.532 217.288 260.906 215.63 260.906 215.63V214.707C261.994 214.638 263.086 214.638 264.174 214.707C264.884 214.837 264.494 215.891 262.694 216.802C260.894 217.714 255.957 219.478 255.199 220.082C254.442 220.686 254.086 223.231 253.483 225.943C252.879 228.654 251.008 232.703 242.72 231.508Z" fill="#37474F"/>
<path d="M256.928 242.72L262.848 239.322C263.416 237.605 262.505 236.741 260.894 236.847C259.284 236.954 259.781 235.391 258.799 234.953C257.508 234.361 256.774 234.692 256.194 234.42C255.614 234.148 255.365 233.461 254.607 233.378C251.221 233.059 248.912 237.889 248.912 237.889L256.928 242.72Z" fill="#F28F8F"/>
<path d="M216.743 286.196C216.743 286.196 242.898 273.232 247.456 271.136C252.015 269.04 259.166 265.997 262.967 265.997C264.452 266.12 265.843 266.774 266.885 267.84C267.926 268.906 268.549 270.311 268.638 271.799C268.687 274.083 268.556 276.367 268.247 278.631C261.061 280.988 253.718 282.836 246.272 284.16C235.391 286.054 216.743 286.196 216.743 286.196Z" fill="#37474F"/>
<path d="M219.585 278.702C219.585 284.077 219.076 289.666 221.313 293.596C223.551 297.527 235.675 306.62 247.089 304.714C254.548 303.459 276.689 293.265 276.689 293.265C276.689 293.265 287.428 289.322 287.475 286.516C287.546 282.384 287.262 276.559 277.897 276.807C269.36 277.032 244.176 282.289 244.176 282.289L219.585 278.702Z" fill="#455A64"/>
<path d="M226.89 236.113C230.939 231.886 233.674 231.531 235.616 232.052C240.078 233.329 244.399 235.059 248.51 237.214C248.51 237.214 246.947 252.346 254.347 256.703V280.288C254.347 280.288 254.122 282.846 250.901 285.391C248.06 287.629 241.631 289.891 233.958 289.251C224.842 288.493 219.585 278.702 219.585 278.702C219.585 278.702 219.348 259.414 220.638 251.754C222.154 242.815 225.493 237.581 226.89 236.113Z" fill="#455A64"/>
<path d="M254.347 257.852C254.347 257.852 249.871 254.3 248.51 249.682C248.51 249.682 249.042 256.928 254.347 260.598V257.852Z" fill="#37474F"/>
<path d="M295.775 268.981C297.901 269.069 299.992 268.42 301.695 267.146C301.695 267.146 303.755 263.144 306.289 263.487C306.289 263.487 306.739 261.782 305.697 261.226C304.655 260.669 304.205 260.823 303.779 260.231C303.353 259.639 303.305 258.538 301.411 258.538C300.629 258.538 300.736 257.982 298.842 257.757C296.947 257.532 295.076 261.901 293.691 261.901L295.775 268.981Z" fill="#FFA8A7"/>
<path d="M248.51 237.214C255.01 238.221 257.366 240.151 259.734 242.341C262.102 244.532 276.594 259.071 276.594 259.071L294.141 261.593C295.063 262.34 295.74 263.346 296.083 264.482C296.793 266.542 296.154 268.792 295.479 269.325C295.479 269.325 278.074 270.366 274.652 269.715C271.231 269.064 254.288 257.816 254.288 257.816C252.668 256.595 251.31 255.061 250.293 253.306C249.276 251.551 248.622 249.61 248.368 247.598C247.267 240.459 248.51 237.214 248.51 237.214Z" fill="#455A64"/>
<path d="M232.905 299.753L206.016 332.574C205.718 332.612 205.417 332.631 205.116 332.633C204.05 332.65 202.996 332.402 202.05 331.911L179.34 318.792L177.801 317.904C176.961 317.419 176.262 315.429 176.262 313.464V307.935C176.261 302.255 177.755 296.675 180.594 291.755C183.433 286.836 187.517 282.75 192.436 279.909L219.549 264.257L248.403 280.916L232.905 299.753Z" fill="#F39237"/>
<g opacity="0.1">
<path opacity="0.1" d="M232.905 299.753L206.016 332.574C205.718 332.612 205.417 332.631 205.116 332.633C204.05 332.65 202.996 332.402 202.05 331.911L179.34 318.792L177.801 317.904C176.961 317.419 176.262 315.429 176.262 313.464V307.935C176.261 302.255 177.755 296.675 180.594 291.755C183.433 286.836 187.517 282.75 192.436 279.909L219.549 264.257L248.403 280.916L232.905 299.753Z" fill="black"/>
</g>
<path d="M223.634 311.072L248.368 280.928L219.514 264.269L192.412 279.909C188.906 281.939 185.813 284.61 183.295 287.783L223.634 311.072Z" fill="#F39237"/>
<path d="M248.368 305.129C248.368 307.094 247.681 309.083 246.829 309.569L245.289 310.457L208.159 331.899C207.483 332.263 206.744 332.492 205.981 332.574C205.682 332.612 205.382 332.631 205.081 332.633V324.594C205.08 318.912 206.575 313.331 209.416 308.411C212.258 303.492 216.345 299.407 221.266 296.568L224.333 294.804L248.368 280.916V305.129Z" fill="#F39237"/>
<g opacity="0.2">
<path opacity="0.2" d="M248.368 305.129C248.368 307.094 247.681 309.083 246.829 309.569L245.289 310.457L208.159 331.899C207.483 332.263 206.744 332.492 205.981 332.574C205.682 332.612 205.382 332.631 205.081 332.633V324.594C205.08 318.912 206.575 313.331 209.416 308.411C212.258 303.492 216.345 299.407 221.266 296.568L224.333 294.804L248.368 280.916V305.129Z" fill="black"/>
</g>
<path d="M256.336 345.74L270.864 345.692L291.655 333.687L271.29 348.404L255.957 348.617L256.336 345.74Z" fill="#E0E0E0"/>
<path d="M221.065 366.412C221.065 366.412 247.255 356.538 249.481 355.378C252.093 353.777 254.572 351.967 256.892 349.967C257.366 349.34 257.588 348.56 257.516 347.778C257.444 346.996 257.082 346.269 256.502 345.74C256.502 345.74 245.846 345.254 243.111 346.095C241.583 346.557 216.932 354.466 216.932 354.466L221.065 366.412Z" fill="#E0E0E0"/>
<path d="M219.893 355.378C217.726 353.519 215.547 354.288 215.014 357.083C214.811 358.624 214.974 360.192 215.49 361.659C216.007 363.126 216.862 364.45 217.986 365.525C220.153 367.383 222.332 366.626 222.864 363.82C223.067 362.278 222.903 360.71 222.387 359.244C221.871 357.777 221.016 356.452 219.893 355.378Z" fill="#455A64"/>
</g>
<defs>
<clipPath id="clip0">
<rect width="592" height="592" fill="white"/>
</clipPath>
</defs>
</svg>

