<svg width="592" height="592" viewBox="0 0 592 592" fill="none" xmlns="http://www.w3.org/2000/svg">
<path d="M53.1617 444.604H549.613C549.613 444.604 537.631 420.652 522.061 412.861C506.492 405.07 498.109 420.652 478.94 409.865C459.771 399.079 463.974 373.943 442.414 358.953C420.853 343.964 398.096 360.753 378.335 359.557C358.574 358.361 352.583 332.005 330.975 329.01C309.367 326.014 310.007 350.949 290.246 358.361C270.485 365.773 256.857 353.708 242.945 354.17C229.033 354.632 231.567 363.145 218.389 369.136C205.211 375.127 202.819 372.131 177.671 374.523C152.523 376.915 146.532 402.667 137.545 409.853C128.559 417.04 116.589 405.662 98.0234 409.853C79.4583 414.045 53.1617 444.604 53.1617 444.604Z" fill="#F39237"/>
<g opacity="0.8">
<path opacity="0.8" d="M53.1617 444.604H549.613C549.613 444.604 537.631 420.652 522.061 412.861C506.492 405.07 498.109 420.652 478.94 409.865C459.771 399.079 463.974 373.943 442.414 358.953C420.853 343.964 398.096 360.753 378.335 359.557C358.574 358.361 352.583 332.005 330.975 329.01C309.367 326.014 310.007 350.949 290.246 358.361C270.485 365.773 256.857 353.708 242.945 354.17C229.033 354.632 231.567 363.145 218.389 369.136C205.211 375.127 202.819 372.131 177.671 374.523C152.523 376.915 146.532 402.667 137.545 409.853C128.559 417.04 116.589 405.662 98.0234 409.853C79.4583 414.045 53.1617 444.604 53.1617 444.604Z" fill="white" fill-opacity="0.53"/>
</g>
<path d="M270.307 475.376C339.66 475.376 395.882 471.39 395.882 466.472C395.882 461.555 339.66 457.569 270.307 457.569C200.954 457.569 144.732 461.555 144.732 466.472C144.732 471.39 200.954 475.376 270.307 475.376Z" fill="#F39237"/>
<path d="M387.973 460.552C427.292 460.552 459.167 458.559 459.167 456.1C459.167 453.642 427.292 451.649 387.973 451.649C348.654 451.649 316.779 453.642 316.779 456.1C316.779 458.559 348.654 460.552 387.973 460.552Z" fill="#F39237"/>
<g opacity="0.6">
<path opacity="0.6" d="M270.307 475.376C339.66 475.376 395.882 471.39 395.882 466.472C395.882 461.555 339.66 457.569 270.307 457.569C200.954 457.569 144.732 461.555 144.732 466.472C144.732 471.39 200.954 475.376 270.307 475.376Z" fill="white"/>
<path opacity="0.6" d="M387.973 460.552C427.292 460.552 459.167 458.559 459.167 456.1C459.167 453.642 427.292 451.649 387.973 451.649C348.654 451.649 316.779 453.642 316.779 456.1C316.779 458.559 348.654 460.552 387.973 460.552Z" fill="white"/>
</g>
<path d="M269.396 333.71L291.477 317.892" stroke="#263238" stroke-width="0.835087" stroke-linecap="round" stroke-linejoin="round"/>
<path d="M339.193 443.597L337.949 457.628C337.949 457.628 331.662 460.387 331.674 461.31C331.686 462.234 332.858 463.5 337.985 463.5C343.112 463.5 344.781 461.559 344.781 460.102C344.781 458.646 355.697 446.51 355.697 446.51C355.965 445.782 356.039 444.996 355.913 444.23C355.786 443.465 355.463 442.745 354.975 442.141C353.27 440.199 347.445 439.963 347.445 439.963L339.193 443.597Z" fill="#F39237"/>
<path d="M331.686 462.245C331.686 462.245 340.223 461.689 342.508 460.387C344.793 459.084 352.927 446.7 353.578 445.717C354.004 444.915 354.228 444.02 354.229 443.112" stroke="#263238" stroke-width="0.417543" stroke-linecap="round" stroke-linejoin="round"/>
<path d="M350.133 440.164C350.133 440.164 357.059 441.478 356.396 444.45C355.733 447.422 344.864 460.6 343.218 462.21C341.572 463.82 331.378 463.856 331.686 462.21C331.994 460.564 337.949 457.592 337.949 457.592L339.927 445.752" stroke="#263238" stroke-width="0.835087" stroke-linecap="round" stroke-linejoin="round"/>
<path d="M204.264 454.999L183.875 464.957C183.875 464.957 181.211 466.899 186.551 466.899C191.891 466.899 220.035 467.135 220.035 467.135C220.035 467.135 223.196 467.869 223.918 466.413C225.102 464.045 225.623 462.53 224.889 461.796C224.155 461.061 204.264 454.999 204.264 454.999Z" fill="#F39237"/>
<path d="M185.793 464.613H221.965" stroke="#263238" stroke-width="0.417543" stroke-linecap="round" stroke-linejoin="round"/>
<path d="M202.89 456.266C202.89 456.266 182.123 465.17 182.454 466.153C182.786 467.135 203.541 467.147 211.451 467.147C219.36 467.147 224.972 467.479 224.972 465.501" stroke="#263238" stroke-width="0.835087" stroke-linecap="round" stroke-linejoin="round"/>
<path d="M350.133 440.164L281.591 390.069L279.223 339.642C276.697 341.865 273.846 343.69 270.769 345.053C266.53 346.675 241.974 359.084 241.974 359.084C241.974 359.084 252.855 397.646 254.832 400.95C256.81 404.253 339.867 445.764 339.867 445.764L350.133 440.164Z" fill="#263238"/>
<path d="M224.96 463.524C224.96 463.524 222.32 462.861 219.36 462.198C216.4 461.535 202.879 456.278 202.879 456.278C202.611 455.202 202.499 454.094 202.547 452.987C202.582 452.273 202.778 451.576 203.12 450.948C203.463 450.321 203.943 449.779 204.524 449.364C204.524 449.364 153.103 380.81 151.789 378.833C150.475 376.855 151.457 373.552 160.361 366.637C169.265 359.723 227.518 324.167 227.518 324.167C225.28 321.515 229.495 319.881 229.495 319.881L234.775 321.527L269.384 333.722L283.225 324.499C283.225 324.499 285.534 333.059 276.961 339.654C268.389 346.249 190.02 381.094 190.02 381.094L188.718 381.177L223.977 458.208C223.977 458.208 226.345 462.423 224.96 463.524Z" fill="#263238"/>
<path d="M181.235 372.415L187.747 380.561L185.142 369.811" stroke="white" stroke-width="0.835087" stroke-linecap="round" stroke-linejoin="round"/>
<path d="M245.42 359.711C245.42 359.711 258.775 380.561 263.665 384.8" stroke="white" stroke-width="0.835087" stroke-linecap="round" stroke-linejoin="round"/>
<path d="M247.373 359.06C251.055 362.281 254.973 365.222 259.095 367.857" stroke="white" stroke-width="0.835087" stroke-linecap="round" stroke-linejoin="round"/>
<g style="mix-blend-mode:multiply">
<path d="M270.793 248.676L224.546 280.194L234.657 321.87L268.981 333.379L314.778 300.748L309.249 258.822L270.793 248.676Z" fill="#F39237"/>
</g>
<path d="M224.794 280.194L227.731 293.218" stroke="#263238" stroke-width="0.835087" stroke-linecap="round" stroke-linejoin="round"/>
<path d="M230.17 302.725L234.787 321.515L269.396 333.71L265.11 302.725" stroke="#263238" stroke-width="0.835087" stroke-linecap="round" stroke-linejoin="round"/>
<path d="M264.778 300.097L263.464 292.188" stroke="#263238" stroke-width="0.835087" stroke-linecap="round" stroke-linejoin="round"/>
<path d="M305.65 308.006L314.873 301.079L310.255 261.865" stroke="#263238" stroke-width="0.835087" stroke-linecap="round" stroke-linejoin="round"/>
<path d="M268.07 289.879L293.123 271.089" stroke="#263238" stroke-width="0.835087" stroke-linecap="round" stroke-linejoin="round"/>
<path d="M291.809 254.276L271.041 248.676L225.552 279.661" stroke="#263238" stroke-width="0.835087" stroke-linecap="round" stroke-linejoin="round"/>
<path d="M225.884 280.975L232.81 282.952" stroke="#263238" stroke-width="0.835087" stroke-linecap="round" stroke-linejoin="round"/>
<path d="M244.674 285.593L263.464 290.861" stroke="#263238" stroke-width="0.835087" stroke-linecap="round" stroke-linejoin="round"/>
<path d="M288.505 253.625L260.16 275.375" stroke="#263238" stroke-width="0.417543" stroke-linecap="round" stroke-linejoin="round"/>
<path d="M257.852 277.352L247.634 285.261" stroke="#263238" stroke-width="0.417543" stroke-linecap="round" stroke-linejoin="round"/>
<path d="M289.216 235.438C289.216 235.438 296.415 294.816 296.415 297.456C296.415 300.097 289.82 301.411 289.82 304.702C289.635 307.402 289.081 310.063 288.174 312.612C288.174 312.612 286.86 313.938 286.86 314.979C286.86 316.021 289.168 315.643 291.146 314.66C293.123 313.677 293.774 310.042 293.774 310.042C293.322 312.22 292.994 314.422 292.791 316.637L291.477 317.951C291.477 317.951 287.523 321.574 290.151 321.906C292.78 322.237 304.987 317.62 305.65 314.66C306.313 311.7 303.992 297.516 303.992 297.516C303.992 297.516 313.559 230.608 313.559 224.344C313.605 222.594 313.127 220.87 312.186 219.393C311.245 217.916 309.884 216.754 308.278 216.056" fill="white"/>
<g style="mix-blend-mode:multiply" opacity="0.3">
<path d="M313.511 232.68C312.126 227.411 310.622 217.844 310.622 217.844L304.347 215.938L296.059 225.895L302.607 221.87V300.878C302.607 304.904 297.575 320.497 297.575 320.497C297.575 320.497 307.982 318.307 306.301 308.835C304.62 299.363 302.607 300.878 305.626 281.756C308.645 262.635 314.944 237.984 313.511 232.68Z" fill="#F39237"/>
</g>
<path d="M289.216 235.438C289.216 235.438 296.415 294.816 296.415 297.456C296.415 300.097 289.82 301.411 289.82 304.702C289.635 307.402 289.081 310.063 288.174 312.612C288.174 312.612 286.86 313.938 286.86 314.979C286.86 316.021 289.168 315.643 291.146 314.66C293.123 313.677 293.774 310.042 293.774 310.042C293.322 312.22 292.994 314.422 292.791 316.637L291.477 317.951C291.477 317.951 287.523 321.574 290.151 321.906C292.78 322.237 304.987 317.62 305.65 314.66C306.313 311.7 303.992 297.516 303.992 297.516C303.992 297.516 313.559 230.608 313.559 224.344C313.605 222.594 313.127 220.87 312.186 219.393C311.245 217.916 309.884 216.754 308.278 216.056" stroke="#263238" stroke-width="0.835087" stroke-linecap="round" stroke-linejoin="round"/>
<path d="M297.184 314.103C297.543 315.51 297.426 316.996 296.853 318.33C296.205 319.389 295.442 320.374 294.579 321.267" stroke="#263238" stroke-width="0.417543" stroke-linecap="round" stroke-linejoin="round"/>
<path d="M301.127 314.103C300.933 315.436 300.603 316.745 300.144 318.011" stroke="#263238" stroke-width="0.417543" stroke-linecap="round" stroke-linejoin="round"/>
<path d="M304.063 313.121C303.864 314.452 303.535 315.761 303.08 317.028" stroke="#263238" stroke-width="0.417543" stroke-linecap="round" stroke-linejoin="round"/>
<path d="M197.586 189.724C197.207 186.314 190.387 179.873 180.915 177.979C171.443 176.084 161.202 176.084 157.413 179.163C155.992 180.288 155.045 182.904 154.429 185.722C155.104 184.278 156.466 181.353 157.875 180.181C164.848 174.368 166.79 177.813 167.95 182.892C169.111 187.972 167.56 201.836 167.56 201.836C167.56 201.836 151.67 206.49 153.991 198.344C153.65 197.183 153.413 195.994 153.281 194.792C153.281 195.396 153.281 195.763 153.281 195.763L152.523 200.688L146.082 201.872L123.704 201.162C123.704 201.162 135.094 208.266 141.535 208.266C145.698 208.094 149.686 206.55 152.878 203.873L194.318 207.034C194.318 207.034 197.965 193.134 197.586 189.724Z" fill="#F39237"/>
<path d="M149.279 201.54L123.657 201.15C123.657 201.15 130.761 207.851 140.233 207.851C149.705 207.851 152.854 203.908 152.854 203.908L194.294 207.07C194.294 207.07 199.705 196.757 196.947 187.7C194.188 178.642 169.324 175.599 162.409 177.269C153.861 179.34 153.293 186.563 153.293 190.506C153.23 193.413 152.965 196.313 152.499 199.184" stroke="#263238" stroke-width="0.835087" stroke-linecap="round" stroke-linejoin="round"/>
<g style="mix-blend-mode:multiply" opacity="0.3">
<path d="M173.231 205.673L156.501 205.969C156.501 205.969 151.765 213.013 152.949 215.074C153.865 216.498 155.077 217.709 156.501 218.626C156.501 218.626 155.317 228.027 156.797 231.259C158.277 234.491 170.011 233.011 170.011 233.011C167.414 234.547 164.495 235.455 161.486 235.663C155.909 236.243 154.157 235.071 153.269 231.839C152.381 228.607 152.085 219.324 152.085 219.324L148 215.074L150.936 207.141L154.169 203.92L173.231 205.673Z" fill="#F39237"/>
</g>
<path d="M151.256 205.092C151.256 205.092 146.911 215.346 148.888 216.932C150.865 218.519 152.038 219.3 152.038 219.3C152.038 219.3 153.222 233.094 155.187 235.462C157.152 237.83 169.774 233.887 169.774 233.887C169.774 233.887 195.36 259.497 196.189 254.761C197.018 250.025 193.821 232.265 193.821 230.324C193.821 228.382 188.303 223.22 188.303 223.22" stroke="#263238" stroke-width="0.835087" stroke-linecap="round" stroke-linejoin="round"/>
<path d="M174.119 205.483C174.119 205.483 174.901 209.035 177.269 209.426C179.637 209.817 181.602 205.874 181.602 205.874L174.119 205.483Z" fill="#263238"/>
<path d="M194.176 207.07C194.176 207.07 196.544 214.174 193.774 218.105C191.003 222.036 189.843 222.047 189.843 222.047C187.475 225.99 181.164 217.311 181.164 217.311C181.164 217.311 185.9 217.098 187.084 213.949C188.268 210.799 186.61 206.194 186.61 206.194L194.176 207.07Z" fill="#263238"/>
<path d="M187.072 207.07C187.072 207.07 188.256 212.587 187.072 215.358C185.888 218.128 181.152 217.323 181.152 217.323L178.784 223.243" stroke="#263238" stroke-width="0.835087" stroke-linecap="round" stroke-linejoin="round"/>
<path d="M154.844 221.574C154.844 221.574 159.414 222.556 162.338 217.335" stroke="#263238" stroke-width="0.626315" stroke-linecap="round" stroke-linejoin="round"/>
<path d="M235.991 247.22L226.303 250.788L231.774 265.642L241.462 262.074L235.991 247.22Z" fill="#263238"/>
<path d="M234.295 250.543L229.662 252.249L232.2 259.137L236.833 257.431L234.295 250.543Z" fill="white"/>
<path d="M230.881 244.953L228.836 245.706L230.502 250.228L232.546 249.475L230.881 244.953Z" fill="white" stroke="#263238" stroke-width="0.417543" stroke-linecap="round" stroke-linejoin="round"/>
<path d="M220.733 309.865L229.507 319.869" stroke="#263238" stroke-width="0.835087" stroke-linecap="round" stroke-linejoin="round"/>
<path d="M310.859 186.421L302.157 191.441L297.243 182.857L305.934 177.849L310.859 186.421Z" stroke="#263238" stroke-width="0.835087" stroke-linecap="round" stroke-linejoin="round"/>
<path d="M307.923 176.653L294.224 184.562L286.066 169.454L299.765 161.545L307.923 176.653Z" stroke="#263238" stroke-width="0.835087" stroke-linecap="round" stroke-linejoin="round"/>
<path d="M439.815 368.61C480.949 327.476 480.949 260.786 439.815 219.653C398.682 178.519 331.992 178.519 290.858 219.653C249.725 260.786 249.725 327.476 290.858 368.61C331.992 409.743 398.682 409.743 439.815 368.61Z" fill="white"/>
<path d="M366.259 170.733C342.21 170.726 318.699 177.851 298.7 191.206C278.701 204.562 263.111 223.548 253.903 245.765C244.695 267.981 242.283 292.429 246.97 316.016C251.657 339.604 263.234 361.271 280.237 378.279C297.24 395.286 318.904 406.87 342.49 411.564C366.076 416.258 390.525 413.852 412.743 404.651C434.962 395.45 453.953 379.866 467.315 359.87C480.676 339.875 487.808 316.367 487.808 292.318C487.808 260.078 475.003 229.157 452.209 206.357C429.415 183.556 398.499 170.742 366.259 170.733ZM366.259 397.646C345.417 397.646 325.044 391.466 307.715 379.887C290.386 368.308 276.88 351.851 268.904 332.596C260.928 313.341 258.841 292.153 262.907 271.713C266.973 251.272 277.009 232.495 291.747 217.758C306.484 203.021 325.26 192.985 345.701 188.919C366.142 184.853 387.329 186.94 406.584 194.916C425.839 202.891 442.297 216.398 453.876 233.727C465.454 251.056 471.635 271.429 471.635 292.27C471.635 306.109 468.909 319.811 463.613 332.596C458.318 345.381 450.556 356.997 440.771 366.782C430.986 376.568 419.369 384.329 406.584 389.625C393.799 394.921 380.097 397.646 366.259 397.646Z" fill="#263238" stroke="#263238" stroke-width="0.835087" stroke-linecap="round" stroke-linejoin="round"/>
<path d="M440.862 200.605C428.745 190.732 414.788 183.363 399.801 178.926" stroke="white" stroke-width="1.67017" stroke-linecap="round" stroke-linejoin="round"/>
<path d="M388.589 176.203C384.283 175.386 379.935 174.805 375.565 174.462" stroke="white" stroke-width="1.67017" stroke-linecap="round" stroke-linejoin="round"/>
<path d="M454.94 357.319C469.145 337.922 476.604 314.406 476.177 290.368C475.749 266.33 467.458 243.093 452.572 224.214" stroke="white" stroke-width="0.835087" stroke-linecap="round" stroke-linejoin="round"/>
<path d="M439.572 374.239C443.024 371.155 446.275 367.853 449.304 364.352" stroke="white" stroke-width="0.835087" stroke-linecap="round" stroke-linejoin="round"/>
<path d="M321.563 392.792C340.041 400.998 360.423 403.959 380.472 401.348C400.522 398.737 419.466 390.657 435.227 377.992" stroke="white" stroke-width="0.835087" stroke-linecap="round" stroke-linejoin="round"/>
<path d="M305.875 384.208C309.163 386.364 312.567 388.34 316.069 390.128" stroke="white" stroke-width="0.835087" stroke-linecap="round" stroke-linejoin="round"/>
<path d="M294.082 375.257C296.855 377.67 299.748 379.942 302.749 382.065" stroke="white" stroke-width="0.835087" stroke-linecap="round" stroke-linejoin="round"/>
<path d="M335.853 186.634C317.17 192.014 300.247 202.251 286.809 216.302C273.371 230.354 263.899 247.716 259.357 266.621C254.815 285.526 255.367 305.296 260.955 323.918C266.543 342.541 276.969 359.348 291.169 372.628" stroke="white" stroke-width="0.835087" stroke-linecap="round" stroke-linejoin="round"/>
<path d="M444 214.576C431.138 201.731 415.297 192.27 397.889 187.037C380.481 181.804 362.049 180.962 344.236 184.586" stroke="white" stroke-width="0.835087" stroke-linecap="round" stroke-linejoin="round"/>
<path d="M382.018 331.26H350.381V339.832H382.018V331.26Z" fill="#F39237"/>
<path d="M375.091 292.318C375.091 290.252 374.366 288.251 373.041 286.665C371.717 285.079 369.878 284.008 367.845 283.639L366.91 225.777H365.596L364.672 283.639C362.659 284.001 360.835 285.051 359.511 286.609C358.186 288.167 357.445 290.137 357.412 292.182C357.38 294.227 358.06 296.219 359.334 297.818C360.609 299.418 362.399 300.524 364.4 300.949L364.068 321.48H368.449L368.117 300.949C370.09 300.522 371.858 299.433 373.126 297.863C374.395 296.293 375.088 294.336 375.091 292.318ZM366.259 297.054C365.322 297.054 364.406 296.776 363.627 296.256C362.849 295.735 362.242 294.996 361.883 294.13C361.525 293.265 361.431 292.313 361.614 291.394C361.796 290.475 362.247 289.631 362.91 288.969C363.572 288.307 364.416 287.856 365.335 287.673C366.253 287.49 367.206 287.584 368.071 287.942C368.936 288.301 369.676 288.908 370.196 289.687C370.717 290.465 370.995 291.381 370.995 292.318C370.995 292.94 370.872 293.556 370.634 294.13C370.396 294.705 370.047 295.227 369.607 295.667C369.168 296.106 368.646 296.455 368.071 296.693C367.496 296.931 366.881 297.054 366.259 297.054Z" fill="#263238"/>
<path d="M366.259 297.184C368.946 297.184 371.125 295.005 371.125 292.318C371.125 289.63 368.946 287.452 366.259 287.452C363.571 287.452 361.392 289.63 361.392 292.318C361.392 295.005 363.571 297.184 366.259 297.184Z" fill="#F39237"/>
<path d="M366.259 192.897V210.432" stroke="#263238" stroke-width="3.34035" stroke-linecap="round" stroke-linejoin="round"/>
<path d="M366.259 374.807V392.342" stroke="#263238" stroke-width="3.34035" stroke-linecap="round" stroke-linejoin="round"/>
<path d="M316.4 206.265L325.162 221.444" stroke="#263238" stroke-width="3.34035" stroke-linecap="round" stroke-linejoin="round"/>
<path d="M407.355 363.796L416.117 378.987" stroke="#263238" stroke-width="3.34035" stroke-linecap="round" stroke-linejoin="round"/>
<path d="M279.898 242.755L295.077 251.529" stroke="#263238" stroke-width="3.34035" stroke-linecap="round" stroke-linejoin="round"/>
<path d="M437.429 333.71L452.62 342.484" stroke="#263238" stroke-width="3.34035" stroke-linecap="round" stroke-linejoin="round"/>
<path d="M465.975 292.626H448.44" stroke="#263238" stroke-width="3.34035" stroke-linecap="round" stroke-linejoin="round"/>
<path d="M284.065 292.626H266.53" stroke="#263238" stroke-width="3.34035" stroke-linecap="round" stroke-linejoin="round"/>
<path d="M465.975 292.626H448.44" stroke="#263238" stroke-width="3.34035" stroke-linecap="round" stroke-linejoin="round"/>
<path d="M284.065 292.626H266.53" stroke="#263238" stroke-width="3.34035" stroke-linecap="round" stroke-linejoin="round"/>
<path d="M452.62 242.755L437.429 251.529" stroke="#263238" stroke-width="3.34035" stroke-linecap="round" stroke-linejoin="round"/>
<path d="M295.077 333.71L279.898 342.484" stroke="#263238" stroke-width="3.34035" stroke-linecap="round" stroke-linejoin="round"/>
<path d="M416.117 206.265L407.355 221.444" stroke="#263238" stroke-width="3.34035" stroke-linecap="round" stroke-linejoin="round"/>
<path d="M325.162 363.796L316.4 378.987" stroke="#263238" stroke-width="3.34035" stroke-linecap="round" stroke-linejoin="round"/>
<path d="M371.279 166.909H361.238V175.788H371.279V166.909Z" stroke="#263238" stroke-width="0.835087" stroke-linecap="round" stroke-linejoin="round"/>
<path d="M374.168 143.181H358.35V166.399H374.168V143.181Z" stroke="#263238" stroke-width="0.835087" stroke-linecap="round" stroke-linejoin="round"/>
<path d="M377.459 126.842H354.561V142.66H377.459V126.842Z" fill="#F39237"/>
<path d="M377.708 126.842H354.809V142.66H377.708V126.842Z" stroke="#263238" stroke-width="0.835087" stroke-linecap="round" stroke-linejoin="round"/>
<path d="M357.355 136.681V127.197" stroke="#263238" stroke-width="0.835087" stroke-linecap="round" stroke-linejoin="round"/>
<path d="M357.355 142.956V138.871" stroke="#263238" stroke-width="0.835087" stroke-linecap="round" stroke-linejoin="round"/>
<path d="M360.268 142.956V127.197" stroke="#263238" stroke-width="0.835087" stroke-linecap="round" stroke-linejoin="round"/>
<path d="M363.18 131.14V127.197" stroke="#263238" stroke-width="0.835087" stroke-linecap="round" stroke-linejoin="round"/>
<path d="M363.18 142.956V133.034" stroke="#263238" stroke-width="0.835087" stroke-linecap="round" stroke-linejoin="round"/>
<path d="M367.999 142.956V127.197" stroke="#263238" stroke-width="0.835087" stroke-linecap="round" stroke-linejoin="round"/>
<g style="mix-blend-mode:multiply" opacity="0.3">
<path d="M199.066 252.358L207.579 252.95L207.295 249.717C207.295 249.717 199.658 249.125 199.066 252.358Z" fill="#F39237"/>
</g>
<g style="mix-blend-mode:multiply" opacity="0.3">
<path d="M175.611 319.526L192.992 308.006L170.792 316.471C170.792 316.471 168.779 271.183 170.295 267.667C171.81 264.15 181.365 257.603 181.365 257.603C181.365 257.603 180.797 253.956 183.875 252.571C185.986 251.782 188.312 251.782 190.423 252.571L192.613 253.4C190.091 251.979 186.018 249.102 179.755 243.253H179.613L181.128 244.709L180.465 250.629L173.811 256.064C172.308 257.579 166.624 264.802 166.624 264.802L166.293 324.783L175.327 318.97L175.611 319.526Z" fill="#F39237"/>
</g>
<path d="M180.406 250.653C180.406 250.653 166.565 261.865 166.565 264.861C166.565 267.856 165.571 323.528 166.234 324.842C166.897 326.156 192.992 308.006 192.992 308.006L190.352 283.947" stroke="#263238" stroke-width="0.835087" stroke-linecap="round" stroke-linejoin="round"/>
<path d="M183.047 278.015L211.06 300.428" stroke="#263238" stroke-width="0.835087" stroke-linecap="round" stroke-linejoin="round"/>
<g style="mix-blend-mode:multiply" opacity="0.3">
<path d="M304.347 215.938L287.475 210.752L232.478 201.505L218.543 216.79C218.543 216.79 230.62 209.248 234.136 209.248C237.652 209.248 290.696 224.332 295.704 225.741L304.347 215.938Z" fill="#F39237"/>
</g>
<path d="M202.014 227.328C202.014 227.328 229.187 201.505 232.478 201.505C235.77 201.505 290.151 212.374 294.106 213.037C298.06 213.7 304.655 215.014 304.655 215.014C304.655 215.014 293.123 229.518 289.168 234.456C285.214 239.393 283.248 242.365 283.248 242.365L238.754 221.941" stroke="#263238" stroke-width="0.835087" stroke-linecap="round" stroke-linejoin="round"/>
<path d="M246.319 226.925L257.532 256.585" stroke="#263238" stroke-width="0.835087" stroke-linecap="round" stroke-linejoin="round"/>
<path d="M212.043 271.42L209.402 274.06L196.556 257.579" stroke="#263238" stroke-width="0.835087" stroke-linecap="round" stroke-linejoin="round"/>
<path d="M233.686 228.098L246.722 225.812L235.64 233.627" stroke="#263238" stroke-width="0.417543" stroke-linecap="round" stroke-linejoin="round"/>
<path d="M190.293 283.947L173.74 281.52" stroke="#263238" stroke-width="0.417543" stroke-linecap="round" stroke-linejoin="round"/>
<path d="M181.069 244.721C179.88 247.665 179.762 250.934 180.738 253.956C182.383 258.893 187.984 267.466 187.984 267.466L195.23 257.248" stroke="#263238" stroke-width="0.835087" stroke-linecap="round" stroke-linejoin="round"/>
<path d="M197.539 253.293C197.539 253.293 201.173 250.002 204.465 250.002H210.065C210.065 250.002 209.083 237.143 204.465 230.217C199.847 223.291 193.584 226.925 193.584 226.925" stroke="#263238" stroke-width="0.835087" stroke-linecap="round" stroke-linejoin="round"/>
<path d="M191.607 309.983L231.164 291.525L234.456 279.992L247.965 277.056C247.965 277.056 250.606 274.416 250.274 277.056C249.943 279.696 246.319 280.679 245.005 283.319C243.691 285.96 243.679 291.229 242.033 293.537C240.388 295.846 234.456 298.486 234.456 298.486C234.456 298.486 189.961 335.723 186.67 337.701C183.378 339.678 176.783 320.888 176.783 320.888" fill="white"/>
<g style="mix-blend-mode:multiply" opacity="0.3">
<path d="M175.611 319.526C177.138 321.977 183.378 332.124 183.816 336.102C184.325 340.637 188.351 336.102 188.351 336.102L224.581 305.922C224.581 305.922 188.848 328.548 185.888 327.542C182.928 326.535 182.336 318.993 182.336 318.993L192.992 308.006L175.611 319.526Z" fill="#F39237"/>
</g>
<path d="M191.607 309.983L231.164 291.525L234.456 279.992L247.965 277.056C247.965 277.056 250.606 274.416 250.274 277.056C249.943 279.696 246.319 280.679 245.005 283.319C243.691 285.96 243.679 291.229 242.033 293.537C240.388 295.846 234.456 298.486 234.456 298.486C234.456 298.486 189.961 335.723 186.67 337.701C183.378 339.678 176.783 320.888 176.783 320.888" stroke="#263238" stroke-width="0.835087" stroke-linecap="round" stroke-linejoin="round"/>
<path d="M247.965 277.056C247.965 277.056 241.512 280.904 242.164 282.206" stroke="#263238" stroke-width="0.417543" stroke-linecap="round" stroke-linejoin="round"/>
<path d="M242.815 278.264L237.925 280.868" stroke="#263238" stroke-width="0.417543" stroke-linecap="round" stroke-linejoin="round"/>
</svg>

